<svg id="Layer_1" data-name="Layer 1" xmlns="http://www.w3.org/2000/svg" viewBox="0 0 1000 1000"><defs><style>.cls-1,.cls-2{fill:#2e7536;}.cls-2{font-size:126.26px;font-family:Lato-Bold, Lato;font-weight:700;}</style></defs><path class="cls-1" d="M460.9,166.34c212.93-.64,383.31,172,384.47,382,1.18,214.73-171.29,392-393.94,387.63C245.91,932,76.08,765.07,75.62,551,75.16,338.16,249.37,164.62,460.9,166.34Zm-1.81,397.49c-27-62.81-68.56-113.14-126-150.4-42-27.26-87.88-43.62-137.31-50.7-6.19-.89-10.34.52-12.62,6.27-13.43,33.76-22.09,68.72-24.88,104.94-2.62,34,1.09,67.42,8.87,100.7,8.85,37.86,23.58,73,44.9,105.28C256.1,746.62,316.57,792,392.79,816.06c15.46,4.88,31.22,9.16,47.46,10.17.3-1,.54-1.32.45-1.49q-28.6-50.46-57.2-100.93a11.37,11.37,0,0,0-7.21-5.56c-9.68-2.72-19.44-5.12-29.11-7.85-24.68-7-49.74-12.51-74.17-20.44-8.07-2.62-8.48-7.92-6.63-13.78s7-8.66,13.24-6.94c14.34,4,28.38,9.37,42.93,12.2,12.79,2.49,24.76,9.4,38.13,8.14,1.75-3.69-.83-6-2.05-8.12-12.62-22.19-26.57-43.69-38-66.47-7.73-15.43-18.95-22-35.11-25.06-19.34-3.69-38.28-9.54-57.27-14.91-7-2-12.41-7-9.81-14.72,2.54-7.52,8.57-9.35,16.93-6.8,18.25,5.58,36.85,10,56.27,15.16-.57-2.85-.51-4.36-1.15-5.47-15.86-27.45-32-54.72-47.54-82.38-4-7.14-12.81-15.07-2.63-23.75,6-5.07,13.4-.3,21,12.7,16.43,28.24,32.84,56.5,49.73,85.55,2.81-4,4.67-7,5.63-10.91,3.73-15.19,7.93-30.26,12.06-45.35,1.89-6.91,5.78-13,13.65-10.86,7.31,2,9.54,8.53,7.5,16-6.29,23.08-12.71,46.13-18.8,69.26-1.67,6.33-2.57,12.39,1.43,19,12.14,20.07,23.32,40.74,35.05,61.06,4.87,8.43,8.65,17.65,15.4,24.28,2.9-.49,2.81-2.12,3.15-3.38q10.2-38.24,20.33-76.49c1.78-6.75,5.84-12.3,12.83-10.6,7.49,1.81,10.24,7.8,7.9,16.27-8.33,30.08-16,60.36-24.17,90.48-2.38,8.72-3.05,16.5,2.07,24.81,11.06,17.93,21.39,36.31,31.86,54.59,7.59,13.24,14.94,26.61,22.49,40.09,1.92-1.18,3.16-1.49,3.6-2.26,18.3-32.08,36.41-64.25,54.88-96.22,2.51-4.33,3.52-8.64,2.38-13-4-15-8.64-29.92-12.77-44.93-5-18.06-9.67-36.21-14.48-54.32-2-7.67,1-13.69,8.14-15.51,7.45-1.88,11.27,3.88,13.09,10.43,3.82,13.72,7,27.65,11.28,41.21,4.1,12.89,5.56,26.64,11.64,39.1,1.25-.75,2.09-1,2.39-1.48q25.32-43.42,50.57-86.9c2.11-3.61,1.83-7.21.76-11.09q-9.93-36.09-19.62-72.24c-2.75-10.34.12-17.34,8.09-18.25,8.29-.95,11.14,5.37,13,12.24,4.89,18,9.93,36,15.42,55.85,7.85-8.16,11.27-17.27,16.08-25.3,13-21.68,25.38-43.72,38.11-65.54,2.19-3.75,3.65-8.57,8.86-9.29,4.08-.57,8.06-1,11.32,3.18,4.76,6.12,1.72,11.3-1.22,16.39-14.35,24.85-29,49.52-43.27,74.41-2.88,5-7.47,9.71-6.25,17.21,7.08-1.63,13.52-3,19.91-4.61,12.48-3.13,24.88-6.55,37.4-9.51,6.52-1.54,11.88.39,13.88,7.47,1.92,6.75-2.15,10.39-7.6,12.9a35.8,35.8,0,0,1-7,2.25c-20.6,4.83-40.71,11.51-61.52,15.62-10,2-17.4,7.45-22.56,17.59-10.31,20.25-22.79,39.38-33.85,59.27-3.69,6.63-9.51,12.5-10.23,21.74,3.91-.38,7.07-.25,10-1,21.81-5.9,43.64-11.73,65.31-18.11,11.51-3.39,17.82-2.17,20,5.78,2.93,10.61-5.76,12.65-12.43,15.94-1.49.74-3.47.41-5.15.85-29.55,7.87-59.08,15.82-88.65,23.63-5.3,1.4-9.9,3.79-12.62,8.54q-26,45.47-51.77,91.07c-1.21,2.12-3.12,4.2-1.53,6.67,1.87,2.9,4.92,1.86,7.65,1.54,17.4-2,34.23-7.15,50.37-13.13,55.26-20.47,103.15-51.93,141.84-97.23,52.16-61.08,77.6-132.21,80.62-211.48,1.59-41.73-7.27-82.41-20.49-122-6-17.88-8.12-19.44-27.13-16.74a294,294,0,0,0-68.12,18.15q-122.52,49-180,167.83C465.52,555,465,561.31,459.09,563.83Z"/><text class="cls-2" transform="translate(533.72 143.42) rotate(15.48)">V</text><text class="cls-2" transform="translate(614.5 166.15) rotate(25.84)">E</text><text class="cls-2" transform="matrix(0.81, 0.59, -0.59, 0.81, 675.43, 194.15)">G</text><text class="cls-2" transform="matrix(0.68, 0.74, -0.74, 0.68, 745.57, 244.99)">A</text><text class="cls-2" transform="translate(802.85 305.94) rotate(59.16)">N</text></svg>