<svg id="Layer_1" data-name="Layer 1" xmlns="http://www.w3.org/2000/svg" viewBox="0 0 1000 1000"><defs><style>.cls-1,.cls-2{fill:#a6cd3a;}.cls-2{font-size:124.72px;font-family:Lato-Bold, Lato;font-weight:700;}</style></defs><path class="cls-1" d="M823.39,565.14c1.67,201.5-166.43,378-383.56,373.76-198.58-3.88-369-167.67-367.16-380,1.74-203.77,166.83-372,375.18-372.48C654.37,186,826.57,353.92,823.39,565.14ZM433.85,819.27c5.71-3.22,4.39-7.76,4.4-11.75.07-29.74-.7-59.51.38-89.21.47-12.78-4.29-21.31-12.84-29.64-20.85-20.32-41.33-41-61.75-61.8-4.83-4.92-8.32-11.29-2.14-17.28,6.44-6.23,12.73-2.55,18,2.62,8.78,8.65,17.18,17.7,26.06,26.24,9.94,9.56,18.75,20.37,29.55,28.45,2.87-1.32,2.75-3.14,2.76-4.83q0-45.65,0-91.3c0-6.52-3.19-11.46-7.87-16.06-16.86-16.57-33.21-33.66-50.11-50.2-5.49-5.37-6.18-10.91-1.79-16.28,4.53-5.54,10.36-4.64,15.47,0,2.76,2.52,5.33,5.25,8,7.89,10.82,10.81,21.29,22,33.14,31.5,4.74-3.22,3.16-7.39,3.18-10.92.12-30.78.07-61.56.08-92.34,0-6.48,1.71-11.81,9.39-12.29s10.13,4.83,11.56,10.85c.62,2.64.37,5.51.37,8.27,0,22.46-.26,44.93,0,67.39.09,9.12-1.32,18.41,1.22,27.77,7.71-2.18,11.71-8,16.29-12.9,8.69-9.2,17.49-18.21,27.49-26.05C510.26,483,515.11,484,519,489c4,5.24,3.35,10.21-1.87,15.23-17.52,16.86-34.62,34.15-51.88,51.28a18.23,18.23,0,0,0-5.69,13.81c.16,29.71,0,59.43.05,89.14,0,2.94-.65,6.27,3.61,8.82,17.75-17.9,35.64-35.91,53.49-54,5.45-5.52,12.08-10.37,18.55-3.59,6,6.34,2.35,13-3.52,18.82-22,21.7-43.59,43.77-65.5,65.54-4.42,4.38-6.71,9-6.67,15.4.2,33.51,0,67,0,100.54,0,3.29-.59,6.94,3,9.78,7.46-6.49,15.38-12.54,22.33-19.57,27.94-28.26,50.72-59.91,67.49-96.35A320.8,320.8,0,0,0,581.7,590.07c3.78-56.94-6.36-111.66-31-163.34-21.95-46-53.5-84.45-93.28-116.2-5.51-4.4-11.21-4.72-16.92,0-7.64,6.36-15.89,12.05-23,18.93C386.87,359,362,392.34,344.12,431.37A324.8,324.8,0,0,0,315,543.08c-4.37,57.25,5.8,112.35,30.64,164.21C366.61,751.08,395.58,788.91,433.85,819.27Z"/><text class="cls-2" transform="translate(356.58 155.28) rotate(-6.63)">V</text><text class="cls-2" transform="translate(439.01 146.06) rotate(3.64)">E</text><text class="cls-2" transform="translate(505.2 148.89) rotate(14.04)">G</text><text class="cls-2" transform="translate(589.19 170.44) rotate(24.76)">E</text><text class="cls-2" transform="translate(651.41 198.69) rotate(34.39)">T</text><text class="cls-2" transform="matrix(0.72, 0.69, -0.69, 0.72, 704.06, 232.94)">A</text><text class="cls-2" transform="translate(763.87 290.19) rotate(54.68)">R</text><text class="cls-2" transform="translate(807.55 354) rotate(62.37)">I</text><text class="cls-2" transform="translate(825.14 383.35) rotate(70.52)">A</text><text class="cls-2" transform="translate(853.53 460.86) rotate(82.58)">N</text></svg>