<svg id="Layer_1" data-name="Layer 1" xmlns="http://www.w3.org/2000/svg" viewBox="0 0 671.71 670.92"><defs><style>.cls-1{fill:#8a8a8a;}.cls-2{fill:#151110;}.cls-3{fill:#64453c;}.cls-4{fill:#f4f0ef;}.cls-5{fill:#e7b0a0;}.cls-6{fill:#fff;}</style></defs><path class="cls-1" d="M209.49,624.13c-3.65-2.73-4.52-6.41-4.75-10.86-1.13-21.56-2.64-43.09-4-64.64-.87-14.3-1.59-28.62-2.46-42.92-.95-15.76-2-31.5-3-47.25-.12-2-.58-4,.35-5.9,7.36,0,9-1.84,7.89-9a4.69,4.69,0,0,1,.1-1l5.6-1.65c3.48,2.38,6.66,1.66,9.65-1l56.72-6.69c2.23.29,4.26.13,5.28-2.33.32,2,1.52,2,3.19,1.75,7.7-1,15.42-1.81,23.13-2.69,2-.11,3.94-.12,5.64-1.33,1.06-.76,2.39-1.43,3.51-.93,3.91,1.73,7.73,0,11.58,0a96.29,96.29,0,0,0,19-2.24,36.8,36.8,0,0,0,7.89-1.05c5.3.56,10.41-1.4,15.68-1.19,1.28.05,1.91-.85,2.16-2,2.9,2.08,5.83.76,8.75.07,4.14-.11,8.37.66,12.28-1.43a17.49,17.49,0,0,0,10.51-1.87c1,1.23,2.28.8,3.51.65,7.37-.91,14.73-1.87,22.11-2.72q24.28-2.82,48.57-5.55c2.54-.19,5.17.21,7.56-1.06,2.94.27,5.88-.7,8.83,0,1.86-1.44,4.55-.6,6.33-2.28.82,1,1.88.77,3,.62,4.11-.55,8.23-1.1,12.36-1.56q21-2.34,42-4.6c1.33-.14,2.56-.3,2.7-2,2,1.29,4.11,1.87,6.28.28,9.83,0,19.5-1.86,29.24-2.85,14.62-1.47,29.19-3.35,43.8-5,4.5-.5,9-1.48,13.55-1,5.19.55,7,2.28,7.31,7.55q.54,10.6.84,21.22c.56,18.69,1,37.39,1.6,56.09q1.06,35.38,2.23,70.77,1,29.94,2,59.88c-.94,1.41-2.21,2.65-2.35,4.48-6.16.08-12.36-.39-18.44,1.1v0c-2.16-1.84-4.39-1.27-6.64-.21l-1.86.52A24.74,24.74,0,0,0,632,612c-2.12-.17-4.24-.35-6.12,1-5.79-.77-11.6-.21-17.38-.09-16.32.33-32.64.72-49,1.37-21.93.87-43.86,1.53-65.79,2.21-22.11.69-44.22,1.48-66.33,2.18-22.29.7-44.58,1.5-66.88,2.26-8.48.29-17,1.05-25.48,1.14-8.87.1-17.72.67-26.59.72-14.68.1-29.36.74-44.05,1.16l-2.79.11q-9.47,0-18.91,0c-1.08,0-2.19,0-2.84,1.13l0,0c-4.81,0-9.64-.36-14.41,0-4,.32-8,1.06-12.08,0Zm112.35-155c1.46-.17,3-.24,3-2.32q-.09-12.21-.15-24.43c0-1.8-.85-2.65-2.65-2.6-.9,0-1.81,0-2.71,0a7.33,7.33,0,0,0-3.8,1.21c-6-.52-11.82,1.16-17.76,1.5-7,.41-13.86,2.35-20.93,1.62-1.29,1.27-2.94,1-4.51,1.1-4,.47-7.89,1-11.85,1.38-2.34.24-3.61,1.15-3.44,3.77.3,4.88.22,9.79.61,14.65.62,7.54.73,7.52,8.51,7.3a11,11,0,0,1,1.61.15c1.53-.35,3.23,0,4.6-1,1.63,0,3.27.12,4.9,0q20.36-1.11,40.73-2.27ZM571.92,602.3l16.36-.37c2.63.2,2.29-1.74,2.31-3.31.08-6.18.16-12.35.13-18.53,0-4.13-.11-4.24-4.37-4.24-10.53,0-21.07.09-31.6.18-5.47,0-5.48.07-5.58,5.81,0,1.27,0,2.54,0,3.81a58.85,58.85,0,0,0,0,5.94c.18,2-.93,4.33,1.06,6.06a20.16,20.16,0,0,0-.85,2.48c-.4,1.88.07,3.22,2.33,3.09C558.42,602.83,565.22,603.64,571.92,602.3ZM420.8,565c0,4.22,3.22,3.49,5.43,3.08,4.86-.9,9.72-.66,14.58-.73,8.67-.11,17.35-.08,26-.2,4.7-.06,4.83-.3,4.65-5.54.3-1.85,1-3.88-1.9-4.32,1.12-.89,2.21-1.65,2.19-3.43-.06-7.77,0-15.55.05-23.33,0-1.8-.79-2.68-2.6-2.62-1.09,0-2.17,0-3.25.1q-21.37,1.14-42.75,2.3c-3.68.21-3.82.25-3.69,4.3.28,8.67.72,17.33,1.09,26A10.88,10.88,0,0,0,420.8,565Zm182.92-34.92c0,1.54,0,3.08,0,4.61,0,4.9.16,9.82-.2,14.7-.25,3.42-1,6.81-.77,10.27.19,3.7,1.09,4.74,4.64,4.1a71,71,0,0,1,10.28-.73c3.08-.1,6.18.33,9.22-.45,2,.81,4.11.42,6.18.33,5.8-.06,11.59-.07,17.39-.19,4.63-.1,4.72-.16,4.59-5-.3-11-.74-22.07-1-33.11-.22-8-.14-7.67-8.36-7.07-11.36.83-22.72,1.87-34.13,1.79H607c-2.14.42-3.42,1.38-3.19,3.9A62.84,62.84,0,0,1,603.72,530.05Zm-267-40.25c.37,1.42.73,2.85,1.1,4.27-.5,8.32,0,16.64.07,25,0,4.64.14,4.73,5,4.52,7.77-.34,15.53-.86,23.3-1.2a33.69,33.69,0,0,0,6.42-.92c1.46.79,2.93,0,4.39,0,8.68-.43,17.37-.82,26.05-1.3,4.26-.23,4.52-.35,4.29-5-.6-11.94-1-23.89-1.12-35.85,0-2.75-1-3.93-3.86-3.71-6.68.49-13.37.78-20.06,1.15-3.13.06-6.3-.2-9.29,1.06-10.48-.53-20.85,1.59-31.33,1.2a6.53,6.53,0,0,0-1.08.07c-2.45.31-4,1.35-3.86,4.17C336.88,485.46,336.75,487.63,336.73,489.8Zm-70.1-6.48c-1.07.09-2.13.2-3.2.27-4.6.3-4.57.29-4.34,5,.51,10.6,1,21.21,1.44,31.81.37,9.76.9,7.55,8.28,7.5,1.45-.15,3,.14,4.21-1a16.53,16.53,0,0,0,2.7.3c11.78-.53,23.57-.95,35.34-1.72,3.8-.25,7.6-.55,11.4-.73,4-.19,4.16-.42,4.24-4.56a22.41,22.41,0,0,0-.06-2.72c-1.14-10.32-.61-20.68-.86-31,0-.9,0-1.8,0-2.69-.2-3.83-.59-4.23-4-2.73a6.83,6.83,0,0,1-4.6.19c-2,0-3.95-.17-5.92-.07q-20.18,1.06-40.36,2.21Zm99.89,125.74a31.79,31.79,0,0,0,4.85.28c10.61-1,21.25-.58,31.88-1,1.61-.06,3.22-.35,4.84-.45,2.05-.13,2.74-1.2,2.68-3.19-.09-3.05,0-6.11,0-9.17-.68-1.4,0-3.15-1.14-4.42.05-2.17.18-4.35.12-6.51-.12-4.5-.17-4.62-4.58-4.54q-30.68.57-61.35,1.28c-4,.09-4.07.19-4.06,4.47,0,6.52.12,13,.18,19.55.44,4.23.43,4.26,4.09,4.39C351.57,610,359.05,609.53,366.52,609.06Zm26.7-145.48c2.58,2.15,5.54.66,8.32.85s4-1.05,3.8-3.93c-.24-4.17.06-8.37-.35-12.52-.58-5.74-.5-11.52-.87-17.34l-7.56.37a14.76,14.76,0,0,0-5.12,1.09c-4.66.42-9.33.75-14,1.27-12.16,1.36-24.29,2.86-36.45,4.2-4.72.52-5.13.91-5.33,5.54-.23,5.43,1.08,10.74,1,16.18-.07,9.86-1.6,8.82,9,8.6,1.38-.37,2.93-.06,4.19-1,11.55.74,23-1.29,34.52-1.23a14.67,14.67,0,0,0,3.63-.92C389.9,464.91,391.79,465.23,393.22,463.58Zm107.27-5.35,4.5,0c9.57-.67,19.14-1.45,28.73-2,2.91-.15,3.63-1.35,3.6-4-.12-9.44-.07-18.88-.09-28.31,0-9.27,0-9.06-9.41-7.8-11.48,1.53-23,2.66-34.54,4-1.63.24-3.37-.18-4.86.86-2.52,0-4.53.12-4.48,3.68.15,10.47,0,20.94-.07,31.4,0,2.28.76,3.36,3.15,3.15C491.51,458.86,496,458.56,500.49,458.23Zm17.26,66.51c-1.5.23-3.17-.26-4.42,1-9.08-.47-18.1.49-27.14,1.06-2,.12-3,1-3.05,3-.05,7.61-.1,15.23-.07,22.85,0,.63.6,1.26.92,1.89-1.32,1.43-1.3,3.09-.83,4.83a12.4,12.4,0,0,0-.26,1.6c-.18,5.14-.15,5.14,4.86,5.23,14.39.24,28.75-.56,43.1-1.38,2.17.31,4.45,1.42,6.31-.79l0-18.62a9.15,9.15,0,0,0,0-4.59c0-4.35.18-8.69.14-13-.05-4.06-.22-4.27-4.46-3.88A118,118,0,0,1,517.75,524.74Zm110.11,75.5c8.69,1,17.34-.79,26-.44,2.37.1,2.35-1.75,2.32-3.44-.12-6.35-.32-12.7-.32-19.05,0-2.58-1-3.46-3.52-3.46-4.51,0-9,.77-13.53-.08-1.45.72-3.23,0-4.59,1-9.24,0-18.48.11-27.71.06-2.61,0-4,.65-4,3.62-.1,6.68.57,13.39-.76,20-.35,1.79.85,2.62,2.61,2.59l9.23-.16A59.28,59.28,0,0,0,627.86,600.24ZM589.63,452.75c4.3-.17,4.31-.17,4.75-3.81a31.87,31.87,0,0,0,.23-3.24q.28-16.8.54-33.61c0-1,.24-2.19-.72-3-6.51-.4-12.85,1.91-19.38,1.28l-4.63,1.06c-5.75.69-11.5,1.37-17.24,2.08-4.65.57-4.76.59-4.72,5.25q.16,16.31.55,32.62c.08,3.73.18,3.88,4.2,3.72,9.59-.39,19.19-.9,28.78-1.43a14,14,0,0,0,3.08-.9A4,4,0,0,0,589.63,452.75ZM286.77,571.59c1.38-.64,3.14.13,4.33-1.17,11,.58,22.11-.12,33.16,0,3,0,3.67-1.54,3.57-4.13q-.49-12.48-.85-25c-.15-5.45-.11-5.43-5.81-4.87-1.26.13-2.53.12-3.8.17-13.57.59-27.14,1.27-40.67,2.53l-4.68-.18c-2.34.13-4.68.32-7,.37-2.61.06-3.53,1.37-3.13,3.83,1.27,7.87.69,15.85,1.49,23.76.54,5.36,1.09,4.68,5.57,4.7C274.88,571.6,280.83,571,286.77,571.59Zm135,16c.05,5.07.07,10.13.17,15.19.1,4.62.15,4.69,5,4.56,12.11-.34,24.22-.76,36.32-1.14,1.63-.05,3.26-.14,4.89-.07,2.23.08,3.31-1.07,3.71-3.11l-.7-4.89c1.23-4.82.49-9.72.6-14.58.12-5.36,0-5.36-5.32-5.39-13.73-.08-27.41,1.52-41.16,1.08a14.62,14.62,0,0,0-1.62.06c-2.09.14-2,1.65-2,3.14C420.53,584.19,421.35,585.89,421.74,587.6Zm-92.66,16.71a108.5,108.5,0,0,1-1-16.8c0-6-.08-6.08-5.87-5.93-10,.26-19.93.61-29.9.92h-4.07c-6.34.1-12.69.16-19,.33-4.66.12-4.75.19-4.56,5,.29,7.24.8,14.48,1.08,21.72.09,2.36,1,3.22,3.34,3,3.43-.29,6.87-.49,10.3-.59,15-.47,30.08-.88,45.12-1.32,1.75-.06,3.74.41,4.57-1.9C329.07,607.3,329.07,605.81,329.08,604.31Zm262.64-69.72c1.48-3.85.67-7.87.86-11.82.1-2.06-1.4-2.35-3-2.09a98.3,98.3,0,0,1-11.37.82q-12.48.59-25,1.24c-4.07.23-4.15.3-4.17,4.51s.1,8.7.16,13c-.19,1.67-.51,3.34.2,5-.69,5-.25,10.1-.29,15.15,0,4.51.11,4.87,4.48,4.53,8.46-.68,16.92-.87,25.4-.88,3.07,0,6.14-.09,9.21,0,2.16,0,3.44-.65,3.39-3.06-.16-7,.48-14.08-.16-21.12A8.68,8.68,0,0,0,591.72,534.59ZM511,513.84h4.46c5.77-.45,11.52-1.12,17.32-1.2,4.51,0,4.58-.21,4.6-4.57q0-17.65,0-35.31c0-4.84-.07-4.93-4.76-4.74-8.5.35-17,.82-25.47,1.24-1.48.1-3-.09-4.24,1.05-4.7-.64-9.39,0-14.08.1s-4.92.33-4.95,5q-.13,17.63-.13,35.25c0,4.44.09,4.56,4.57,4.38C495.83,514.71,503.4,514.24,511,513.84Zm-4.6,90.47c6,0,12,0,17.94-.12,3.39-.1,6.69-1.16,10.19-.11,2.4.72,3-1.1,2.92-3.26-.1-6.53,0-13.06-.08-19.58-.05-4.17-.13-4.19-4.34-4.28-15.58-.36-31.12.82-46.69,1-2.54,0-3.57,1-3.53,3.54.1,6.52.06,13.05.08,19.57-.19,2-.68,4.38,2.46,4.24C492.33,605,499.42,606,506.37,604.31Zm82.55-139.48c-12.31.14-24.56,1.42-36.84,2-2.37.12-3.08,1.24-3.07,3.43.06,12.68.11,25.37,0,38.05,0,2.72,1.15,3.47,3.63,3.25q6.23-.57,12.45-.91,11.94-.66,23.87-1.2c2.18-.1,3.89-.32,3.89-3.2,0-8.48.17-17,.27-25.45,1.25-4.37.82-8.85.59-13.27C593.58,464.62,592.68,464.31,588.92,464.83Zm18.16,43.54,20.65-1.16c6.89-.38,13.77-.73,20.65-1.18,4.58-.29,4.79-.52,4.65-5.29-.33-11.79-.12-23.59-1.11-35.36-.34-4.1-.28-4.27-4.45-4.06-11.59.6-23.18,1.26-34.76,2.08-7.42.53-7.41.67-7.66,8.12,0,.54,0,1.09,0,1.63l-.42,30C603.1,507.4,603.39,508,607.08,508.37ZM407.43,562c2.36-1.52,2.37-1.86.08-3.56.3-.45.83-.89.86-1.37a134.68,134.68,0,0,0-.67-23.84c-.18-1.72-1.45-1.93-2.79-1.84-3.07.21-6.13.58-9.2.74-16.83.88-33.66,1.7-50.49,2.57-1.26.06-2.51.37-3.77.51-1.91.2-2.87,1.06-2.83,3.16.2,9.43.31,18.86.41,28.29,0,2,.82,3.07,2.91,3,.9,0,1.81,0,2.72,0l59.84-1.24,2.17-.06c1.6,0,2.14-.87,2.27-2.39A5.44,5.44,0,0,0,407.43,562Zm64.51-68.09h.14c0-6.35-.06-12.69,0-19,0-2.56-.83-3.5-3.52-3.31-15.53,1.07-31.07,2-46.61,3-4.59.29-4.68.27-4.54,5.1.34,11.77.78,23.54,1.18,35.32,0,.54,0,1.08.06,1.63a2.36,2.36,0,0,0,2.85,2.48c2.35-.17,4.68-.51,7-.64,13-.77,26.05-1.49,39.07-2.25,4.19-.25,4.26-.28,4.3-4.32C472,505.88,471.94,499.9,471.94,493.91Zm134-55.2c0,.6,0,2.05,0,3.5,0,1.63-.08,3.27-.08,4.9,0,4.71,0,4.86,4.8,4.62,12.14-.63,24.26-1.43,36.4-2.13,4.38-.26,4.5-.23,4.39-4.68q-.48-19-1.14-38.07c-.14-4.11-.63-4.52-5.05-4-11.71,1.33-23.39,2.83-35.1,4.07-2.59.28-3.31,1.31-3.35,3.76C606.66,419.73,606.29,428.79,606,438.71Zm-133.29,2.57h.11c0-4.72,0-9.45,0-14.17,0-4.24-.1-4.32-4.14-3.92q-11.64,1.14-23.25,2.45c-9,1-18,2.16-27,3.12-2.34.24-3,1-2.77,3.44.45,5.6.5,11.23.68,16.85.11,3.63.08,7.27.25,10.89.09,1.94.61,3.38,3.26,3.21,16.3-1,32.6-1.88,48.89-2.85,3.64-.21,3.88-.48,4-4.32C472.76,451.08,472.68,446.18,472.68,441.28ZM237.9,485.43v0l-24.4,1.29c-4.45.23-4.62.23-4.39,4.73.64,12.28,1.49,24.55,2.13,36.83.17,3.12,2.1,2.8,4.13,2.67q14.91-.91,29.8-1.82c4.42-.26,4.56-.23,4.33-4.74-.62-12.1-1.43-24.19-2-36.3-.12-2.74-1.05-3.45-3.64-3A43.66,43.66,0,0,1,237.9,485.43Zm-8.4,87.27c6.76-.31,12.91-.65,19.08-.85,2.14-.07,3.42-.6,3.28-3.09-.49-8.69-.9-17.39-1.31-26.08-.09-1.86-1-2.48-2.8-2.37-10.67.68-21.34,1.38-32,1.89-2.6.12-3.55,1-3.39,3.58.5,8,1,15.93,1.3,23.9.11,2.39,1.18,3.09,3.4,3.05C221.38,572.64,225.74,572.7,229.5,572.7Zm6.32,10.82c-5.8.22-11.6.35-17.39.76-2.75.2-3.91.92-3.7,3.83.54,7.41.79,14.84,1.32,22.25.25,3.52.62,3.8,4.53,3.69,10-.27,19.93-.77,29.9-1,2.87-.06,3.8-1.07,3.62-3.86q-.75-11.4-1.18-22.81c-.1-2.5-1.39-2.95-3.5-2.92C244.89,583.57,240.35,583.52,235.82,583.52ZM246.4,463.87c-.1-4.18-.76-8.3-1-12.45-.15-2.5-1.28-3.06-3.5-2.7s-4.66.61-7,.88c-8.25,1-16.5,2-24.77,2.9-2.57.26-3.44,1.33-3.24,3.81.43,5.23.87,10.46,1,15.7.06,2.89,1.14,3.74,3.91,3.54q16-1.14,31.95-2c2.21-.12,2.73-1.23,2.67-3.15C246.34,468.21,246.4,466,246.4,463.87Z" transform="translate(-9.49 -6.49)"/><path class="cls-2" d="M354.87,424.36a36.8,36.8,0,0,1-7.89,1.05c-4-5.71-8.86-6.74-14.32-3a12.62,12.62,0,0,0-4.67,5.2c-3.85,0-7.67,1.74-11.58,0-1.12-.5-2.45.17-3.51.93-1.7,1.21-3.68,1.22-5.64,1.33,3.53-7.16,8.09-8.24,15.84-3.71,7.53-10.91,17.22-14.59,27.64-4.65,3.24-4.16,6.59-8.22,12.24-9.15,6-1,10.47,1.6,14.1,6.69,2.88-4.38,5.73-8,10.7-8.46,5.27-.55,8,3.22,10.47,7,8.28-7.13,16.61-13.57,26.69-17.12,4.12-1.46,7.93-2.84,10.6-6.7,2-2.84,5.19-4.47,8.22-6.14,1.11-.61,2.5-.87,3.36-2.42-29.16-5.23-52.2-20.47-71.63-42.37-6,8-13.85,10.69-23,11-6.22.21-12,2.36-17.46,5.49-5.8,3.34-11.53,6.88-18.14,8.5-1.93.47-3.05,1.89-4.16,3.31-14.07,18-25,37.69-31.75,59.63-1,2.46-3.05,2.62-5.28,2.33-.31-2.28,1.07-4.09,1.73-6.1,6.57-20.22,16.77-38.5,29.61-55.36.42-.56.74-1.2,1.37-2.24-3.6-.58-6.94-1-10.22-1.65a26.94,26.94,0,0,1-12.66-5.93,21.92,21.92,0,0,1-1.5-32A30.46,30.46,0,0,1,301.05,321c2-.37,3.92-.76,5.9-1a22,22,0,0,0,14.81-8.26q2.1-2.5,4-5.16a39.26,39.26,0,0,1,12-10.87c6.7-4,13.3-8.14,19.88-12.32A79.35,79.35,0,0,0,368.3,275c2.69-2.46,2.64-2.46.43-5.62a143.87,143.87,0,0,0-38.88-37.64,243.9,243.9,0,0,0-63.57-30.24c-6.58-2-4.53-2.7-8.91,2.62-7.29,8.85-15,17.32-24.61,23.7-7.67,5.08-15.83,8.68-25.37,8.42a18.75,18.75,0,0,1-15-7.45c-5.11-6.52-7.25-14.12-7.48-22.3-.39-14.12,4.25-26.73,11.94-38.32,7.81-11.76,18-21.31,28.78-30.27,1-.17,2.11-.89,1.82-1.57-.57-1.32-1.72-.45-2.62,0a1.48,1.48,0,0,0-.38.37c-1.42.3-2.83.65-4.26.89-11.56,2-20-4-21.85-15.67a40.43,40.43,0,0,1,.38-14.63c7.86-37.93,45.32-64.84,83.9-60.4,9.78,1.12,19.16,3.82,28.52,6.7.59.39,1.27.68,1.85.19.39-.34.19-.9-.18-1.3-1.13-3.81-2.93-7.38-3.89-11.27-3.56-14.53,2.35-25.92,16.34-31.34a54.25,54.25,0,0,1,18.66-3.31,93.07,93.07,0,0,1,35.23,5.72,51.58,51.58,0,0,1,6.43,2.9C400.79,23.4,407,37.28,402.71,54.07s-14,30.52-26.62,42.21c-1.86,1.73-3.85,3.31-6.19,5.31,8.3,8.47,17.25,16,26.16,23.48,1.89-1.1,2.14-2.85,3-4.2,3.9-6.22,8.46-11.8,14.77-15.75a21.17,21.17,0,0,1,8-3.27c7.27-1.07,11.52,2.27,12.1,9.62.18,2.32,0,4.67,0,7,1,.25,1.76-.35,2.58-.65,6.25-2.32,9.71-.13,10.48,6.56.46,4-.59,7.91-1,11.86-.23.44-.47,1,0,1.31s.88,0,1.17-.43c7.92-1,11.53,2,11.93,9.9a27.37,27.37,0,0,1-1.06,7.9c3.09.35,6.18.77,7.71,3.91a14.13,14.13,0,0,1,1.15,9.5c-.91,4.2-2.42,8.07-5.54,11-2,1.9-1.7,3.06.11,4.77,2.62,2.5,5,5.24,7.48,7.91a2.87,2.87,0,0,0,3.79.74c15.33-6.47,31.47-9.75,47.9-11.8,12.08-1.51,24-.69,35.34,3.86,11.86,4.75,20,13,22.27,26,1.29,7.52-.12,14.81-2.68,21.9-2.72,7.51-6.38,14.61-9.71,22.05,2.07,1.91,4.69,2.66,7,3.87,6,3.11,11.89,6.27,16.91,10.83,7.62,6.94,7.19,14.52-1.37,20.29-8.24,5.55-17.64,8.35-27.24,10.47-4.06.9-8.17,1.57-12.32,2.36-.13,2.8,1.21,5,2.3,7.26a177,177,0,0,0,17.24,27.68c1.72,2.33,3.6,4.61,4.63,7.35,1.46,3.87-.23,6.4-4.38,6.71-3.87.29-7.57-.79-11.25-1.74A130,130,0,0,1,531,339.81c-5-2.52-5-2.44-8.06,2.36a148.24,148.24,0,0,1-10.12,14.17c-1,1.25-2.13,2.38-2.21,4.22-.46,10.67-1,21.34-1.51,32,2.16,1.1,3.35-.48,4.63-1.15a50.32,50.32,0,0,1,20.7-6.14c13.4-.73,24.47,4.07,33,14.46-2.17,1.59-4.24,1-6.28-.28-7.75-7.53-17.05-11-27.75-9.63-12.85,1.62-23.88,7-32.3,17.16-1.78,1.68-4.47.84-6.33,2.28,1.52-4.48,5.15-7.28,8.31-10.47.95-1,2.27-1.49,2.05-3.43-.93-8,.59-15.85.93-23.77A31.49,31.49,0,0,0,506,364c-8.6,10.24-19.61,15.85-29.55,23.3,4.66,6.54,8.66,13.56,9.52,21.92-2.39,1.27-5,.87-7.56,1.06-1.83-2.41-4.55-3.45-7.18-4.52a63.94,63.94,0,0,0-36.1-3.6c-11.87,2.15-21.68,8.37-30.91,15.74a17.49,17.49,0,0,1-10.51,1.87c-3.41-5.92-6.49-6.33-10.66-1.36a17.83,17.83,0,0,0-1.62,2.79c-2.92.69-5.85,2-8.75-.07-4.74-5.62-10.1-5.9-15.12-.78A10.19,10.19,0,0,0,354.87,424.36Zm125.63-213a28.8,28.8,0,0,0-1.68-2.34c-20.53-22.05-40.88-44.29-64.42-63.3-15.68-12.65-31.57-25.06-46-39.23-1-1-1.94-2.22-3.67-1.92a1.72,1.72,0,0,1-2.13-1.22,2.34,2.34,0,0,1,1.32-2.7,31.18,31.18,0,0,0,2.66-1.89,88.86,88.86,0,0,0,30.57-41.46,35.64,35.64,0,0,0,2.22-16.58c-1.41-11-8.15-18.13-17.71-22.47a79.09,79.09,0,0,0-49.43-5.73c-17.46,3.59-23.62,15.23-17.69,32a65.88,65.88,0,0,0,6.07,12.14c.71,1.17,1,2.39,0,3.5a2.86,2.86,0,0,1-3,.69c-1-.31-2-.71-3.07-1.07-3.77-1.28-7.51-2.67-11.32-3.83-12.58-3.83-25.26-6.11-38.57-4.37C236.55,55.19,211.37,76.73,204,104a39.9,39.9,0,0,0-1.54,15.61c1.42,11,7.66,15.41,18.55,13.16,6.62-1.37,12.74-4.15,19.05-6.37,1.37-.49,2.7-1.06,4.09-1.46a2.19,2.19,0,0,1,2.69,1.31,2,2,0,0,1-.67,2.42,43,43,0,0,1-4,2.79,157.48,157.48,0,0,0-37,32.69,71.19,71.19,0,0,0-13.89,26.26c-2.21,8-2.9,16.07-.82,24.19q6,23.35,28.65,15.17c8.18-2.94,15-8,21.28-13.86,8.92-8.36,16.36-18,23.41-27.9,1.58-2.22,3.14-4.44,4.77-6.63.79-1.06,1.86-2,3.23-1.18,1.78,1,1,2.54.3,3.78-.91,1.56-2.05,3-3.1,4.46-1.77,2.49-3.55,5-5.52,7.72,1.63.56,2.77,1,3.94,1.35a220.18,220.18,0,0,1,30.05,11.13c29.54,13.67,56.18,31.08,75.15,58.38,2.31,3.33,2.49,3.29,6,1.33q29-16.19,57.88-32.44Zm-39.33,27.21c1.7,1.11,3.12,1.91,4.4,2.9,4.88,3.8,5,7.75.11,11.52-3.87,3-7.78,6-12.29,8-4.69,2.06-8.86,5-13.2,7.58a18,18,0,0,0-6.35,6.54c-3,5.17-6.36,10.14-9.55,15.21-5.3,8.46-9.86,17.33-14.66,26.07-3.58,6.52-4.94,14.1-9.6,20-2.1,2.66-1.38,4.23.68,6.39,20.72,21.69,45,36.39,75.55,39.17,1.53.14,3,.35,3.21,2.2.15,1.48-1,2.27-2.2,2.78-3.17,1.33-6.44,2.46-9.54,3.95s-6.3,2.69-8.28,6c16.33-.64,18.63-.19,41.05,8a42,42,0,0,0-9.14-16.6c-2.39-2.81-2.12-3.91,1.41-4.83,4.56-1.18,8.09-4,11.68-6.73a4.21,4.21,0,0,0,1.76-4.19c-.55-6.14-.77-12.31-1.2-18.46-.11-1.57.5-3.67-1.13-4.51-2-1-3.15,1.18-4.59,2.11s-2.57,2-3.89,3a81.65,81.65,0,0,1-25.79,12.56,22.49,22.49,0,0,1-6.42,1c-4.18,0-6.39-2.36-6-6.57a50.61,50.61,0,0,1,1.39-6.93,22.23,22.23,0,0,0,1-6.39c-2.5-.4-4,1.2-5.62,2.09a82.79,82.79,0,0,1-19,8,16.14,16.14,0,0,1-4.27.65c-2.89-.08-4.2-1.93-3.48-4.76s2.56-5.21,4.32-7.51a110.29,110.29,0,0,0,12.68-21.52c2.26-4.95,4.69-9.82,6.8-14.83a10.8,10.8,0,0,1,6.17-6.29c5.17-2.21,10.37-4.4,15.7-6.09,4.41-1.4,8.79-3.8,13.66-2.91a301.19,301.19,0,0,0,62.3,4.51c14.75-.39,29.31-2.17,43.35-7,5.15-1.76,10.25-3.75,14.62-7.12,5-3.81,5.21-7.46.85-11.81a40.65,40.65,0,0,0-5.48-4.45,105.88,105.88,0,0,0-16.67-9.16c-27.63-12.9-55-26.22-80.39-43.31a4,4,0,0,0-4.9-.13c-5.66,3.26-11.37,6.42-17.07,9.62Zm32.75-41.35c3.65,4.1,7.74,7.83,10.73,12.3,2.87,4.29,7,6.56,11,9.12,15.36,9.67,31.54,17.84,47.74,26,5,2.53,10.13,4.84,15.2,7.26,1.54.74,3,1.46,4-.81,4-9.1,9-17.81,10.9-27.75,2.8-14.61-3.17-26.7-16.55-33.2a52.38,52.38,0,0,0-21.52-5.15c-19.09-.57-37.44,3.55-55.47,9.37C477.93,195,475.75,195.36,473.92,197.19ZM416,141.31c3.34-4.95,6.65-9.45,9.52-14.21a25.25,25.25,0,0,0,3.93-13.34c-.06-7.09-3.05-9.37-9.54-6.72-9,3.68-14.62,10.88-19,19.24a2.35,2.35,0,0,0,.66,3.31C406.34,133.42,411.05,137.28,416,141.31Zm15.64,13.07c1.87-2.78,3.49-5,4.89-7.29a39.52,39.52,0,0,0,5.91-19c.09-2.21,1.11-5.22-1.54-6.39-2.44-1.08-4.37,1.22-6.12,2.7-6.06,5.13-9.53,12.26-14.06,18.57-.87,1.21-.2,2,.68,2.74Zm12.28,13c2.88-3.38,4.88-5.45,6.55-7.77,2.22-3.1,3.9-6.51,4-10.45.08-2.88.52-6.25-2.58-7.68-2.9-1.35-4.95,1.26-7,3-4,3.3-5.62,8.34-8.8,12.26-.94,1.16.3,1.89,1,2.68C439.19,161.87,441.3,164.35,443.92,167.41Zm12,10.39c4.87-3.59,7.66-9.49,6.76-14.27-.7-3.7-2.43-4.56-5.67-2.71-3.86,2.21-6.05,6-8.81,9.07Z" transform="translate(-9.49 -6.49)"/><path class="cls-2" d="M261.61,624.06l2.79-.11c1.33,1.92,2.72,3.82,4,5.78,7.32,11.26,6.16,23.75-3.35,33.2-7.69,7.66-17.18,11.77-27.88,13.35-5.74.85-11.4,1.88-17.21.36-11.46-3-19.44-9.85-22.28-21.43s.85-21.42,9.78-29.3l2-1.78,3.91,1.11c.47.81.74,1.41-.28,2.23a55,55,0,0,0-6,5.51c-6.58,7.16-7.44,19-2.5,27.35a26.47,26.47,0,0,0,38,7.77c11.8-8.13,14.36-20.82,8.06-32.49-2.57-4.75-6.87-7.33-10.81-10.44l0,0c6.27-1.2,10.77,1.07,14.13,6.52,6.07,9.8,6.51,19.66,1.22,29.87-.68,1.31-2.13,2.37-2.09,4.27,2.68-.45,4.1-2.23,5.8-3.51,10.68-8,12.53-21,4.52-31.61-1-1.3-1.94-2.64-3-3.86C258.8,625,261.12,624.94,261.61,624.06Z" transform="translate(-9.49 -6.49)"/><path class="cls-3" d="M218.94,439.88c-3,2.62-6.17,3.34-9.65,1-3-5.21-7.93-8.81-11.5-13.5-3.22-4.26-6.8-4.23-11.78-2.43,5.47,5.93,10.55,11.48,15.7,16.95.41.45,1.31.43,2,.63a4.69,4.69,0,0,0-.1,1c1.1,7.19-.53,9.05-7.89,9-4.74-6.43-10.62-11.85-15.83-17.86-2.49-2.87-5.12-5.63-7.69-8.43-1.81-1.95-3.18-4.14-2.19-6.86,1.11-3,3.65-4.37,6.72-4.71,3.61-.39,7.32-.24,10.8-1.09,7.31-1.79,12.77-.09,17.28,6.26,2.89,4.08,7,7.34,10.65,10.83C218.12,433.25,219.55,436.14,218.94,439.88Z" transform="translate(-9.49 -6.49)"/><path class="cls-2" d="M638.79,612.24l1.86-.52,6.64.21v0c-9.71,7.33-15.37,16.5-14.35,29.25.84,10.58,10.5,18.36,20.81,16.06,11.85-2.64,18.54-10.48,21.88-21.78a21.81,21.81,0,0,0-1.72-17.33c-1.82-3.31-4-6.5-8.18-7.3.14-1.83,1.41-3.07,2.35-4.48q14.64,7.7,12.93,25.87c-1.22,13.18-11.59,25.92-24.49,29a53.19,53.19,0,0,1-22,.84c-9.53-1.79-16.48-9.7-17.73-19.64-1-8.26,1-15.85,5-23,1.25-2.21,2.73-4.28,4.11-6.42,1.88-1.33,4-1.15,6.12-1,.07,1.43-.86,2.32-1.72,3.25a35.6,35.6,0,0,0-8.71,17.83c-1.12,5.88-.5,11.58,2.75,16.75,2.14,3.38,4.81,6.16,9,6.73a1.93,1.93,0,0,0-.22-2.32c-8.12-13.73-6.87-27.09,3.65-38.92C637.54,614.4,638.53,613.57,638.79,612.24Z" transform="translate(-9.49 -6.49)"/><path class="cls-2" d="M55.57,362.55c-1.62,0-3.8,0-6,0-.94,0-1.8-.35-2-1.47a1.94,1.94,0,0,1,1.74-2.31,24.05,24.05,0,0,1,3.76-.57c22.45-1.5,44.85-3.57,67.23-5.77,17.51-1.72,35-3.77,52.47-5.74q28.13-3.17,56.22-6.45c.18,0,.36-.07.54-.1,1.64-.21,3.57-.56,3.76,1.76.17,2-1.69,1.95-3.12,2.14-7.73,1-15.45,2.06-23.19,3-24.48,2.89-48.95,5.87-73.45,8.52-17.3,1.86-34.66,3.26-52,4.83C73.11,361.1,64.62,361.78,55.57,362.55Z" transform="translate(-9.49 -6.49)"/><path class="cls-2" d="M41.37,627.26c-1.81,0-3.62,0-5.43,0a1.63,1.63,0,0,1-1.52-1.34,1.68,1.68,0,0,1,1.1-2.17,15.09,15.09,0,0,1,3.68-.83c21.5-1.89,43-3.7,64.5-5.62,13.73-1.22,27.44-2.71,41.18-3.85,11.92-1,23.88-1.66,35.82-2.47a15.45,15.45,0,0,1,2.72-.05,1.94,1.94,0,0,1,1.81,1.72,1.83,1.83,0,0,1-1.43,2,16.22,16.22,0,0,1-3.21.43c-13.55,1.08-27.11,2-40.65,3.23-18.42,1.66-36.8,3.59-55.22,5.25-14.44,1.31-28.9,2.39-43.35,3.57Z" transform="translate(-9.49 -6.49)"/><path class="cls-2" d="M26.73,480.21c-1.74,0-4.28,0-6.81,0a1.88,1.88,0,1,1-.41-3.74,56.8,56.8,0,0,1,5.93-.73c26.09-1.35,52.14-3.28,78.19-5.21,19.35-1.43,38.7-2.93,58.06-4.34,1.81-.13,4.64-1.3,4.9,1.59s-2.72,2.26-4.53,2.42c-24.55,2.25-49.14,4.07-73.74,5.84C68.06,477.48,47.79,478.68,26.73,480.21Z" transform="translate(-9.49 -6.49)"/><path class="cls-2" d="M26.8,245.19c-4,0-8,0-12,0a31.82,31.82,0,0,1-3.78-.22,1.73,1.73,0,0,1-1.57-1.9,1.78,1.78,0,0,1,1.65-1.83c1.26-.17,2.51-.41,3.77-.47,12.87-.54,25.75-1,38.61-1.57,20.29-.95,40.58-2,60.87-3,12.68-.61,25.37-1.1,38.05-1.64.55,0,1.09-.06,1.64-.07,1.2,0,2.25.41,2.39,1.69s-.81,1.9-2,2c-2.16.27-4.32.62-6.49.73-17.93.9-35.86,1.71-53.79,2.62-17.57.88-35.13,1.9-52.7,2.73-4.88.24-9.79,0-14.69,0Z" transform="translate(-9.49 -6.49)"/><path class="cls-2" d="M85.93,128.15c-2.53,0-5.06,0-7.6,0a2,2,0,0,1-2.09-2,1.87,1.87,0,0,1,1.68-1.85,34.1,34.1,0,0,1,4.83-.61c24-1.29,48.11-2.23,72.09-4.45,4-.36,7.92-.84,11.89-1.22,1.3-.12,2.76-.06,2.92,1.63s-1.25,2-2.55,2.13c-4.3.58-8.59,1.31-12.91,1.7-9.73.88-19.47,1.71-29.22,2.34-13,.84-26,1.48-39,2.2Z" transform="translate(-9.49 -6.49)"/><path class="cls-1" d="M224.42,136.66a1.48,1.48,0,0,1,.38-.37c.9-.46,2-1.33,2.62,0,.29.68-.87,1.4-1.82,1.57C225.53,137.13,224.89,137,224.42,136.66Z" transform="translate(-9.49 -6.49)"/><path class="cls-4" d="M280.94,430.86c6.71-21.94,17.68-41.61,31.75-59.63,1.11-1.42,2.23-2.84,4.16-3.31,6.61-1.62,12.34-5.16,18.14-8.5,5.43-3.13,11.24-5.28,17.46-5.49,9.19-.32,17.08-3,23-11,19.43,21.9,42.47,37.14,71.63,42.37-.86,1.55-2.25,1.81-3.36,2.42-3,1.67-6.26,3.3-8.22,6.14-2.67,3.86-6.48,5.24-10.6,6.7-10.08,3.55-18.41,10-26.69,17.12-2.52-3.81-5.2-7.58-10.47-7-5,.51-7.82,4.08-10.7,8.46-3.63-5.09-8.09-7.68-14.1-6.69-5.65.93-9,5-12.24,9.15-10.42-9.94-20.11-6.26-27.64,4.65-7.75-4.53-12.31-3.45-15.84,3.71-7.71.88-15.43,1.72-23.13,2.69C282.46,432.82,281.26,432.82,280.94,430.86ZM385,397.9a2.54,2.54,0,0,0-1.17-2.31c-7.36-5.85-15.09-10.86-25.1-10-19,1.68-34.8,9.47-46.36,25a47,47,0,0,0-3.12,5.08c-.64,1.14-1.17,2.51.28,3.36,1.71,1,2.52-.25,3.34-1.62,7.72-13,19.12-21.13,33.52-25.09,6.25-1.72,12.58-3.44,19.25-1.85,4.92,1.18,8.95,3.82,12.94,6.69,1.3.93,2.42,2.24,4.17,2.42C384,399.74,384.86,399.26,385,397.9Zm39.22-11.42c-2-.07-3.85,2-4,4.32-.17,2.59,1.15,4.23,3.58,4.44a4.65,4.65,0,0,0,5.17-4.31C429,388.94,426.41,386.55,424.22,386.48Z" transform="translate(-9.49 -6.49)"/><path class="cls-4" d="M407.43,562a5.44,5.44,0,0,1,1.51,3.9c-.13,1.52-.67,2.39-2.27,2.39l-2.17.06-59.84,1.24c-.91,0-1.82,0-2.72,0-2.09.1-2.89-1-2.91-3-.1-9.43-.21-18.86-.41-28.29,0-2.1.92-3,2.83-3.16,1.26-.14,2.51-.45,3.77-.51,16.83-.87,33.66-1.69,50.49-2.57,3.07-.16,6.13-.53,9.2-.74,1.34-.09,2.61.12,2.79,1.84a134.68,134.68,0,0,1,.67,23.84c0,.48-.56.92-.86,1.37C405.8,559.59,405.9,560.78,407.43,562Z" transform="translate(-9.49 -6.49)"/><path class="cls-4" d="M372.63,521.44a33.69,33.69,0,0,1-6.42.92c-7.77.34-15.53.86-23.3,1.2-4.87.21-5,.12-5-4.52-.07-8.33-.57-16.65-.07-25a31.44,31.44,0,0,0,10.2-.18c12.83-2.87,24.11-8.89,34.29-17.09,6.69-.37,13.38-.66,20.06-1.15,2.89-.22,3.84,1,3.86,3.71.08,12,.52,23.91,1.12,35.85.23,4.61,0,4.73-4.29,5-8.68.48-17.37.87-26.05,1.3,1.41-11.19,4.93-21.86,8-32.64.39-1.39,1.11-2.7,1-4.19a1.73,1.73,0,0,0-2.83-1.15,5.75,5.75,0,0,0-1.37,2.27C378.13,497.51,374.18,509.17,372.63,521.44Z" transform="translate(-9.49 -6.49)"/><path class="cls-4" d="M270.87,483.32q20.17-1.11,40.35-2.21c2-.1,3.95,0,5.87.06-.25-.24-.52-.7-.64-.66-.69.2-.37-.27.34-.45,2.44-.63,4.5-.6,5.67,2.27a7.11,7.11,0,0,0,3.32,4.08c.25,10.33-.28,20.69.86,31a22.41,22.41,0,0,1,.06,2.72c-.08,4.14-.23,4.37-4.24,4.56-3.8.18-7.6.48-11.4.73-11.77.77-23.56,1.19-35.34,1.72a16.53,16.53,0,0,1-2.7-.3C270.11,512.45,270,497.91,270.87,483.32Z" transform="translate(-9.49 -6.49)"/><path class="cls-4" d="M471.94,493.91c0,6,.05,12,0,17.95,0,4-.11,4.07-4.3,4.32-13,.76-26.05,1.48-39.07,2.25-2.35.13-4.68.47-7,.64a2.36,2.36,0,0,1-2.85-2.48c0-.55,0-1.09-.06-1.63-.4-11.78-.84-23.55-1.18-35.32-.14-4.83-.05-4.81,4.54-5.1,15.54-1,31.08-1.91,46.61-3,2.69-.19,3.56.75,3.52,3.31-.09,6.35,0,12.69,0,19Z" transform="translate(-9.49 -6.49)"/><path class="cls-4" d="M472.68,441.28c0,4.9.08,9.8,0,14.7-.08,3.84-.32,4.11-4,4.32-16.29,1-32.59,1.82-48.89,2.85-2.65.17-3.17-1.27-3.26-3.21-.17-3.62-.14-7.26-.25-10.89-.18-5.62-.23-11.25-.68-16.85-.19-2.41.43-3.2,2.77-3.44,9-1,18-2.11,27-3.12q11.61-1.31,23.25-2.45c4-.4,4.09-.32,4.14,3.92.05,4.72,0,9.45,0,14.17Z" transform="translate(-9.49 -6.49)"/><path class="cls-4" d="M593.15,480.81c-.1,8.49-.26,17-.27,25.45,0,2.88-1.71,3.1-3.89,3.2q-11.94.53-23.87,1.2-6.23.34-12.45.91c-2.48.22-3.64-.53-3.63-3.25.08-12.68,0-25.37,0-38.05,0-2.19.7-3.31,3.07-3.43,12.28-.59,24.53-1.87,36.84-2C590.37,470.15,591.19,475.63,593.15,480.81Z" transform="translate(-9.49 -6.49)"/><path class="cls-3" d="M239.89,625.17c3.94,3.11,8.24,5.69,10.81,10.44,6.3,11.67,3.74,24.36-8.06,32.49a26.47,26.47,0,0,1-38-7.77c-4.94-8.38-4.08-20.19,2.5-27.35a55,55,0,0,1,6-5.51c1-.82.75-1.42.28-2.23,4,1,8,.28,12.08,0C230.25,624.81,235.08,625.15,239.89,625.17Zm-30.77,24.76c-.32,3.37,1.14,7.44,3.43,11.21,3.41,5.62,10.57,8.79,15.75,7.05,1.68-.56,4-1.21,3.58-3.43-.45-2.64-2.8-1.78-4.42-1.26-3.8,1.21-6.72-.25-9.3-2.78-4.26-4.17-5.29-9.44-4.29-15,.73-4.06,1.73-8.17,4.91-11.27.8-.78,1.37-1.76.43-2.86-1.1-1.3-2.26-.62-3.4,0a5.82,5.82,0,0,0-2.53,2.75A34.4,34.4,0,0,0,209.12,649.93Z" transform="translate(-9.49 -6.49)"/><path class="cls-4" d="M420.63,560.57c-.37-8.66-.81-17.32-1.09-26-.13-4.05,0-4.09,3.69-4.3q21.38-1.17,42.75-2.3c1.08-.06,2.16-.06,3.25-.1,1.81-.06,2.61.82,2.6,2.62,0,7.78-.11,15.56-.05,23.33,0,1.78-1.07,2.54-2.19,3.43-2.33.24-4.65.5-7,.71C448.64,559.24,434.72,561.23,420.63,560.57Z" transform="translate(-9.49 -6.49)"/><path class="cls-4" d="M493.28,420.15c11.52-1.31,23.06-2.44,34.54-4,9.42-1.26,9.39-1.47,9.41,7.8,0,9.43,0,18.87.09,28.31,0,2.65-.69,3.85-3.6,4-9.59.51-19.16,1.29-28.73,2A132.86,132.86,0,0,0,493.28,420.15Z" transform="translate(-9.49 -6.49)"/><path class="cls-4" d="M340,605.37c-.06-6.51-.17-13-.18-19.55,0-4.28.05-4.38,4.06-4.47q30.67-.71,61.35-1.28c4.41-.08,4.46,0,4.58,4.54.06,2.16-.07,4.34-.12,6.51-4.11,2.1-8,4.58-12.56,5.86-4.34,1.24-8.61,2.79-13,4C369.7,605.08,354.91,606,340,605.37Z" transform="translate(-9.49 -6.49)"/><path class="cls-3" d="M665.74,610.85c4.18.8,6.36,4,8.18,7.3a21.81,21.81,0,0,1,1.72,17.33c-3.34,11.3-10,19.14-21.88,21.78-10.31,2.3-20-5.48-20.81-16.06-1-12.75,4.64-21.92,14.35-29.25C653.38,610.46,659.58,610.93,665.74,610.85ZM656,651.17c1.28,0,2.72.15,3.05-1.5.29-1.47-.7-2.33-2-2.76s-2.78-.78-4.14-1.28c-5.49-2-7.71-5.87-6.23-11.44.91-3.44,1.59-7.1,4.7-9.53,1-.81,2-2,1-3.24s-2.65-.95-3.89,0a12,12,0,0,0-2.21,2.34c-2.11,2.81-2.92,6.11-3.8,9.46C639.81,643.45,646.36,649.56,656,651.17Z" transform="translate(-9.49 -6.49)"/><path class="cls-4" d="M276.7,539.09c13.53-1.26,27.1-1.94,40.67-2.53,1.27,0,2.54,0,3.8-.17,5.7-.56,5.66-.58,5.81,4.87q.38,12.5.85,25c.1,2.59-.58,4.14-3.57,4.13-11.05-.07-22.11.63-33.16,0,.3-2.21-1.2-3.7-2.13-5.42C284.4,556.59,279.56,548.31,276.7,539.09Z" transform="translate(-9.49 -6.49)"/><path class="cls-3" d="M482.86,601.12c0-6.52,0-13-.08-19.57,0-2.55,1-3.5,3.53-3.54,15.57-.23,31.11-1.41,46.69-1,4.21.09,4.29.11,4.34,4.28.08,6.52,0,13,.08,19.58,0,2.16-.52,4-2.92,3.26-3.5-1.05-6.8,0-10.19.11-6,.16-12,.09-17.94.12C498.57,603,490.81,601.36,482.86,601.12Z" transform="translate(-9.49 -6.49)"/><path class="cls-4" d="M585.07,452.74a14,14,0,0,1-3.08.9c-9.59.53-19.19,1-28.78,1.43-4,.16-4.12,0-4.2-3.72q-.36-16.31-.55-32.62c0-4.66.07-4.68,4.72-5.25,5.74-.71,11.49-1.39,17.24-2.08C576.57,424.73,580.75,438.76,585.07,452.74Z" transform="translate(-9.49 -6.49)"/><path class="cls-4" d="M318,469.15q-20.37,1.14-40.73,2.27c-1.63.09-3.27,0-4.9,0,.24-2,.39-4,.73-5.93,1.21-7.13,2.48-14.25,3.74-21.38,7.07.73,13.94-1.21,20.93-1.62,5.94-.34,11.75-2,17.76-1.5.19,2,.35,3.91.58,5.86C317,454.24,316.32,461.79,318,469.15Z" transform="translate(-9.49 -6.49)"/><path class="cls-4" d="M507.08,469.26c8.49-.42,17-.89,25.47-1.24,4.69-.19,4.75-.1,4.76,4.74q.08,17.65,0,35.31c0,4.36-.09,4.52-4.6,4.57-5.8.08-11.55.75-17.32,1.2-1.47-2.63-.86-5.61-1.41-8.4C511.64,493.39,509.38,481.32,507.08,469.26Z" transform="translate(-9.49 -6.49)"/><path class="cls-4" d="M511,513.84c-7.57.4-15.14.87-22.72,1.17-4.48.18-4.57.06-4.57-4.38q0-17.62.13-35.25c0-4.64.22-4.9,4.95-5s9.38-.74,14.08-.1c1.86,9.76,3.75,19.52,5.59,29.29C509.32,504.34,510.13,509.09,511,513.84Z" transform="translate(-9.49 -6.49)"/><path class="cls-5" d="M345.71,467.89c-10.59.22-9.06,1.26-9-8.6,0-5.44-1.27-10.75-1-16.18.2-4.63.61-5,5.33-5.54,12.16-1.34,24.29-2.84,36.45-4.2,4.65-.52,9.32-.85,14-1.27-1.29,5-2.58,10.09-3.84,15-13-2.11-24.72.94-35.58,7.55C347.17,457.65,344.28,461.8,345.71,467.89Z" transform="translate(-9.49 -6.49)"/><path class="cls-3" d="M591.51,539.83c.64,7,0,14.08.16,21.12.05,2.41-1.23,3.1-3.39,3.06-3.07,0-6.14,0-9.21,0-8.48,0-16.94.2-25.4.88-4.37.34-4.51,0-4.48-4.53,0-5-.4-10.11.29-15.15,6.72-1.19,13.56-.83,20.33-1.68C577.12,542.66,584.21,540.68,591.51,539.83Z" transform="translate(-9.49 -6.49)"/><path class="cls-3" d="M549.16,585.65c0-1.27,0-2.54,0-3.81.1-5.74.11-5.77,5.58-5.81,10.53-.09,21.07-.18,31.6-.18,4.26,0,4.35.11,4.37,4.24,0,6.18-.05,12.35-.13,18.53,0,1.57.32,3.51-2.31,3.31a4,4,0,0,0-2.46-.94c-11.84-2.33-22.87-6.6-32.71-13.71A6.94,6.94,0,0,0,549.16,585.65Z" transform="translate(-9.49 -6.49)"/><path class="cls-4" d="M484,554.56c-.32-.63-.92-1.26-.92-1.89,0-7.62,0-15.24.07-22.85,0-2,1.06-2.86,3.05-3,9-.57,18.06-1.53,27.14-1.06.84,3.86,1.77,7.7,2.51,11.58.83,4.36.46,5-3.48,7.34C503.57,549.88,493.77,552.18,484,554.56Z" transform="translate(-9.49 -6.49)"/><path class="cls-3" d="M613.59,601l-9.23.17c-1.76,0-3-.8-2.61-2.59,1.33-6.65.66-13.36.76-20,0-3,1.41-3.64,4-3.62,9.23,0,18.47,0,27.71-.06,2.74,10.44-.43,17.09-10.16,22.12C620.7,598.68,616.89,599.12,613.59,601Z" transform="translate(-9.49 -6.49)"/><path class="cls-4" d="M549.28,540.29c-.06-4.34-.19-8.69-.16-13s.1-4.28,4.17-4.51q12.47-.68,25-1.24a98.3,98.3,0,0,0,11.37-.82c1.57-.26,3.07,0,3,2.09-.19,4,.62,8-.86,11.82L587,535.68A194.33,194.33,0,0,1,549.28,540.29Z" transform="translate(-9.49 -6.49)"/><path class="cls-4" d="M404.25,417.91c9.23-7.37,19-13.59,30.91-15.74a63.94,63.94,0,0,1,36.1,3.6c2.63,1.07,5.35,2.11,7.18,4.52q-24.29,2.76-48.57,5.55c-7.38.85-14.74,1.81-22.11,2.72C406.53,418.71,405.23,419.14,404.25,417.91Z" transform="translate(-9.49 -6.49)"/><path class="cls-4" d="M486,409.23c-.86-8.36-4.86-15.38-9.52-21.92,9.94-7.45,20.95-13.06,29.55-23.3a31.49,31.49,0,0,1,.09,7.54c-.34,7.92-1.86,15.81-.93,23.77.22,1.94-1.1,2.46-2.05,3.43-3.16,3.19-6.79,6-8.31,10.47C491.88,408.53,488.94,409.5,486,409.23Zm6.68-20.43a3.36,3.36,0,0,0-3.86-2.87c-1.76.3-2.92,1.31-2.83,3.29.08,1.83.94,3.13,2.83,3.29A4,4,0,0,0,492.68,388.8Z" transform="translate(-9.49 -6.49)"/><path class="cls-4" d="M501.16,406.94c8.42-10.13,19.45-15.54,32.3-17.16,10.7-1.36,20,2.1,27.75,9.63-.14,1.69-1.37,1.85-2.7,2q-21,2.28-42,4.6c-4.13.46-8.25,1-12.36,1.56C503,407.71,502,408,501.16,406.94Z" transform="translate(-9.49 -6.49)"/><path class="cls-3" d="M421.65,582.46c-.06-1.5-.11-3,2-3.15a14.62,14.62,0,0,1,1.62-.06c13.75.44,27.43-1.16,41.16-1.08,5.31,0,5.44,0,5.32,5.39-.11,4.86.63,9.76-.59,14.58C454.56,593.16,437.73,589,421.65,582.46Z" transform="translate(-9.49 -6.49)"/><path class="cls-4" d="M292.32,582.5c10-.31,19.93-.66,29.9-.92,5.79-.15,5.83-.09,5.87,5.93a108.5,108.5,0,0,0,1,16.8c-10-.33-18.93-4-27.67-8.42C295.88,593.1,292,589.28,292.32,582.5Z" transform="translate(-9.49 -6.49)"/><path class="cls-3" d="M530.86,564.84c-14.35.82-28.71,1.62-43.1,1.38-5-.09-5-.09-4.86-5.23a12.4,12.4,0,0,1,.26-1.6c12.64-2.28,24.71-6.16,36.18-13C522.65,553.06,527.26,558.62,530.86,564.84Z" transform="translate(-9.49 -6.49)"/><path class="cls-5" d="M388.05,464.78a14.67,14.67,0,0,1-3.63.92c-11.52-.06-23,2-34.52,1.23-.78-4,1.45-6.52,4.49-8.46a50.42,50.42,0,0,1,27.17-7.68,13.8,13.8,0,0,1,5.26,1.1c3.34,1.34,4.38,3.29,3.48,6.84A57.35,57.35,0,0,1,388.05,464.78Z" transform="translate(-9.49 -6.49)"/><path class="cls-2" d="M530.86,564.84c-3.6-6.22-8.21-11.78-11.52-18.41-11.47,6.8-23.54,10.68-36.18,13-.47-1.74-.49-3.4.83-4.83,9.78-2.38,19.58-4.68,28.37-9.86,3.94-2.33,4.31-3,3.48-7.34-.74-3.88-1.67-7.72-2.51-11.58,1.25-1.3,2.92-.81,4.42-1,.36,1.76.69,3.53,1.09,5.28,2.14,9.36,2.15,9.35,11.78,10.43a5.08,5.08,0,0,0,4.49.37l2.11,0a9.15,9.15,0,0,1,0,4.59,90.87,90.87,0,0,1-13.5-.64c4.27,7.33,8.23,13.72,13.46,19.26C535.31,566.26,533,565.15,530.86,564.84Z" transform="translate(-9.49 -6.49)"/><path class="cls-3" d="M626.85,562.55c-3,.78-6.14.35-9.22.45a71,71,0,0,0-10.28.73c-3.55.64-4.45-.4-4.64-4.1-.18-3.46.52-6.85.77-10.27.36-4.88.16-9.8.2-14.7a6.77,6.77,0,0,0,3.13-.72c3.3-1.66,3.33-1.63,5.11,1.63,2,3.64,4.12,7.22,5.93,11C620.52,552.06,624.55,556.82,626.85,562.55Z" transform="translate(-9.49 -6.49)"/><path class="cls-4" d="M500.49,458.23c-4.49.33-9,.63-13.47,1-2.39.21-3.17-.87-3.15-3.15.1-10.46.22-20.93.07-31.4-.05-3.56,2-3.71,4.48-3.68C494.76,432.67,498.42,445.19,500.49,458.23Z" transform="translate(-9.49 -6.49)"/><path class="cls-2" d="M388.05,464.78a57.35,57.35,0,0,0,2.25-6c.9-3.55-.14-5.5-3.48-6.84a13.8,13.8,0,0,0-5.26-1.1,50.42,50.42,0,0,0-27.17,7.68c-3,1.94-5.27,4.43-4.49,8.46-1.26.9-2.81.59-4.19,1-1.43-6.09,1.46-10.24,6.31-13.19,10.86-6.61,22.54-9.66,35.58-7.55,1.26-5,2.55-10,3.84-15a14.76,14.76,0,0,1,5.12-1.09,59.74,59.74,0,0,0-4,13.38c-.36,2.11-1,4.42.33,6.32,3.05,4.28,1.94,8.54.33,12.87C391.79,465.23,389.9,464.91,388.05,464.78Z" transform="translate(-9.49 -6.49)"/><path class="cls-4" d="M393.22,463.58c1.61-4.33,2.72-8.59-.33-12.87-1.35-1.9-.69-4.21-.33-6.32a59.74,59.74,0,0,1,4-13.38l7.56-.37c.37,5.82.29,11.6.87,17.34.41,4.15.11,8.35.35,12.52.17,2.88-1.15,4.1-3.8,3.93S395.8,465.73,393.22,463.58Z" transform="translate(-9.49 -6.49)"/><path class="cls-3" d="M261.61,624.06c-.49.88-2.81.93-1.19,2.77,1.08,1.22,2,2.56,3,3.86,8,10.56,6.16,23.59-4.52,31.61-1.7,1.28-3.12,3.06-5.8,3.51,0-1.9,1.41-3,2.09-4.27,5.29-10.21,4.85-20.07-1.22-29.87-3.36-5.45-7.86-7.72-14.13-6.52.65-1.13,1.76-1.13,2.84-1.13Q252.15,624,261.61,624.06Z" transform="translate(-9.49 -6.49)"/><path class="cls-2" d="M340,605.37c14.93.59,29.72-.29,44.17-4.37,4.35-1.23,8.62-2.78,13-4,4.52-1.28,8.45-3.76,12.56-5.86,1.17,1.27.46,3,1.14,4.42-13.84,7.53-28.89,11.08-44.29,13.52-7.47.47-14.95,1-22.45.7C340.41,609.63,340.42,609.6,340,605.37Z" transform="translate(-9.49 -6.49)"/><path class="cls-4" d="M537.22,540.84l-2.11,0a4.75,4.75,0,0,0-4.49-.37C521,539.37,521,539.38,518.84,530c-.4-1.75-.73-3.52-1.09-5.28a118,118,0,0,0,15.15-.81c4.24-.39,4.41-.18,4.46,3.88C537.4,532.15,537.27,536.49,537.22,540.84Z" transform="translate(-9.49 -6.49)"/><path class="cls-3" d="M638.79,612.24c-.26,1.33-1.25,2.16-2.09,3.1-10.52,11.83-11.77,25.19-3.65,38.92a1.93,1.93,0,0,1,.22,2.32c-4.17-.57-6.84-3.35-9-6.73-3.25-5.17-3.87-10.87-2.75-16.75a35.6,35.6,0,0,1,8.71-17.83c.86-.93,1.79-1.82,1.72-3.25A24.74,24.74,0,0,1,638.79,612.24Z" transform="translate(-9.49 -6.49)"/><path class="cls-5" d="M336.73,489.8c0-2.17.15-4.34,0-6.5-.15-2.82,1.41-3.86,3.86-4.17a6.53,6.53,0,0,1,1.08-.07c10.48.39,20.85-1.73,31.33-1.2C362.09,485.37,350.52,491,336.73,489.8Z" transform="translate(-9.49 -6.49)"/><path class="cls-2" d="M626.85,562.55c-2.3-5.73-6.33-10.49-9-16-1.81-3.74-3.94-7.32-5.93-11-1.78-3.26-1.81-3.29-5.11-1.63a6.77,6.77,0,0,1-3.13.72c0-1.53,0-3.07,0-4.61,5.14-2.36,3.46-6.78,3.25-10.76h4.51c0,6.77,3.29,12.33,6.34,18.06,4.67,8.76,10.26,16.95,15.21,25.53C631,563,628.87,563.36,626.85,562.55Z" transform="translate(-9.49 -6.49)"/><path class="cls-2" d="M471.83,603c-16.8-4.82-33.58-9.69-50.09-15.43-.39-1.71-1.21-3.41-.09-5.14,16.08,6.54,32.91,10.7,49.49,15.68C471.36,599.77,471.6,601.4,471.83,603Z" transform="translate(-9.49 -6.49)"/><path class="cls-2" d="M420.63,560.57c14.09.66,28-1.33,42-2.6,2.33-.21,4.65-.47,7-.71,2.92.44,2.2,2.47,1.9,4.32-5.21.48-10.4,1.11-15.6,1.62-11.68,1.13-23.33,2.5-35.09,1.77A10.88,10.88,0,0,1,420.63,560.57Z" transform="translate(-9.49 -6.49)"/><path class="cls-2" d="M292.32,582.5c-.37,6.78,3.56,10.6,9.09,13.39,8.74,4.41,17.69,8.09,27.67,8.42,0,1.5,0,3,0,4.49a74.38,74.38,0,0,1-30.7-9.86c-.46-.28-.91-.59-1.38-.86-6-3.46-9.13-8.52-8.74-15.57Z" transform="translate(-9.49 -6.49)"/><path class="cls-2" d="M575.05,410.34c4.62,11,8.36,22.37,12.11,33.7,1,2.88.93,6,2.47,8.71a4,4,0,0,1-4.56,0c-4.32-14-8.5-28-14.65-41.34Z" transform="translate(-9.49 -6.49)"/><path class="cls-2" d="M511,513.84c-.84-4.75-1.65-9.5-2.54-14.24-1.84-9.77-3.73-19.53-5.59-29.29,1.21-1.14,2.76-.95,4.24-1.05,2.3,12.06,4.56,24.13,6.94,36.18.55,2.79-.06,5.77,1.41,8.4Z" transform="translate(-9.49 -6.49)"/><path class="cls-2" d="M549.28,540.29A194.33,194.33,0,0,0,587,535.68l4.68-1.09a8.68,8.68,0,0,1-.21,5.24c-7.3.85-14.39,2.83-21.7,3.74-6.77.85-13.61.49-20.33,1.68C548.77,543.63,549.09,542,549.28,540.29Z" transform="translate(-9.49 -6.49)"/><path class="cls-2" d="M336.73,489.8c13.79,1.16,25.36-4.43,36.3-11.94,3-1.26,6.16-1,9.29-1.06C372.14,485,360.86,491,348,493.89a31.44,31.44,0,0,1-10.2.18C337.46,492.65,337.1,491.22,336.73,489.8Z" transform="translate(-9.49 -6.49)"/><path class="cls-2" d="M268.81,527.9a156.13,156.13,0,0,1-2.18-44.58h4.24c-.9,14.59-.76,29.13,2.15,43.53C271.82,528,270.26,527.75,268.81,527.9Z" transform="translate(-9.49 -6.49)"/><path class="cls-2" d="M500.49,458.23c-2.07-13-5.73-25.56-12.07-37.22,1.49-1,3.23-.62,4.86-.86A132.86,132.86,0,0,1,505,458.26Z" transform="translate(-9.49 -6.49)"/><path class="cls-2" d="M372.63,521.44c1.55-12.27,5.5-23.93,9.11-35.68a5.75,5.75,0,0,1,1.37-2.27,1.73,1.73,0,0,1,2.83,1.15c.15,1.49-.57,2.8-1,4.19-3,10.78-6.55,21.45-8,32.64C375.56,521.42,374.09,522.23,372.63,521.44Z" transform="translate(-9.49 -6.49)"/><path class="cls-3" d="M420.8,565c11.76.73,23.41-.64,35.09-1.77,5.2-.51,10.39-1.14,15.6-1.62.18,5.24.05,5.48-4.65,5.54-8.68.12-17.36.09-26,.2-4.86.07-9.72-.17-14.58.73C424,568.46,420.76,569.19,420.8,565Z" transform="translate(-9.49 -6.49)"/><path class="cls-2" d="M286.77,571.59c.14-2-1.15-3.32-2-4.9-4.76-9-10.11-17.79-12.77-27.78l4.68.18c2.86,9.22,7.7,17.5,12.27,25.91.93,1.72,2.43,3.21,2.13,5.42C289.91,571.72,288.15,571,286.77,571.59Z" transform="translate(-9.49 -6.49)"/><path class="cls-2" d="M549.16,585.65a6.94,6.94,0,0,1,4,1.63C563,594.39,574,598.66,585.82,601a4,4,0,0,1,2.46.94l-16.36.37c-6.83-3-13.73-5.94-20.6-10.72a14.51,14.51,0,0,1-1.12,6.07c-2-1.73-.88-4-1.06-6.06A58.85,58.85,0,0,1,549.16,585.65Z" transform="translate(-9.49 -6.49)"/><path class="cls-2" d="M638.83,573.77c2.95,12.57.6,18.23-11,26.47a59.39,59.39,0,0,1-14.28.72c3.3-1.84,7.11-2.28,10.49-4,9.73-5,12.9-11.68,10.16-22.12C635.6,573.73,637.38,574.49,638.83,573.77Z" transform="translate(-9.49 -6.49)"/><path class="cls-3" d="M537.17,564.05c-5.23-5.54-9.19-11.93-13.46-19.26a90.87,90.87,0,0,0,13.5.64Q537.18,554.75,537.17,564.05Z" transform="translate(-9.49 -6.49)"/><path class="cls-2" d="M267.73,472.43a246.26,246.26,0,0,1,4.56-27.25c1.57-.08,3.22.17,4.51-1.1-1.26,7.13-2.53,14.25-3.74,21.38-.34,2-.49,4-.73,5.93C271,472.44,269.26,472.08,267.73,472.43Z" transform="translate(-9.49 -6.49)"/><path class="cls-5" d="M319.29,439.75c.9,0,1.81.06,2.71,0,1.8,0,2.64.8,2.65,2.6q0,12.21.15,24.43c0,2.08-1.5,2.15-3,2.32C320.38,459.39,321.1,449.46,319.29,439.75Z" transform="translate(-9.49 -6.49)"/><path class="cls-2" d="M319.29,439.75c1.81,9.71,1.09,19.64,2.55,29.38l-3.88,0c-1.64-7.36-1-14.91-1.89-22.33-.23-1.95-.39-3.91-.58-5.86A7.33,7.33,0,0,1,319.29,439.75Z" transform="translate(-9.49 -6.49)"/><path class="cls-5" d="M354.87,424.36a10.19,10.19,0,0,1,2.72-4c5-5.12,10.38-4.84,15.12.78-.25,1.18-.88,2.08-2.16,2C365.28,423,360.17,424.92,354.87,424.36Z" transform="translate(-9.49 -6.49)"/><path class="cls-5" d="M328,427.65a12.62,12.62,0,0,1,4.67-5.2c5.46-3.78,10.32-2.75,14.32,3A96.29,96.29,0,0,1,328,427.65Z" transform="translate(-9.49 -6.49)"/><path class="cls-2" d="M482.86,601.12c7.95.24,15.71,1.88,23.51,3.19-6.95,1.66-14,.71-21.05,1.05C482.18,605.5,482.67,603.13,482.86,601.12Z" transform="translate(-9.49 -6.49)"/><path class="cls-5" d="M381.46,421.21a17.83,17.83,0,0,1,1.62-2.79c4.17-5,7.25-4.56,10.66,1.36C389.83,421.87,385.6,421.1,381.46,421.21Z" transform="translate(-9.49 -6.49)"/><path class="cls-2" d="M593.15,480.81c-2-5.18-2.78-10.66-4.23-16,3.76-.52,4.66-.21,4.82,2.71C594,472,594.4,476.44,593.15,480.81Z" transform="translate(-9.49 -6.49)"/><path class="cls-4" d="M607,519.29c.21,4,1.89,8.4-3.25,10.76a62.84,62.84,0,0,0,.06-6.86C603.55,520.67,604.83,519.71,607,519.29Z" transform="translate(-9.49 -6.49)"/><path class="cls-2" d="M325.78,486.41a7.11,7.11,0,0,1-3.32-4.08c-1.17-2.87-3.23-2.9-5.67-2.27-.71.18-1,.65-.34.45.12,0,.39.42.64.66a6.9,6.9,0,0,0,4.65-.18c3.4-1.5,3.79-1.1,4,2.73C325.78,484.61,325.77,485.51,325.78,486.41Z" transform="translate(-9.49 -6.49)"/><path class="cls-3" d="M604.61,503.1c.82,1.76,1.65,3.52,2.47,5.27C603.39,508,603.1,507.4,604.61,503.1Z" transform="translate(-9.49 -6.49)"/><path class="cls-2" d="M407.43,562c-1.53-1.22-1.63-2.41.08-3.56C409.8,560.14,409.79,560.48,407.43,562Z" transform="translate(-9.49 -6.49)"/><path class="cls-3" d="M647.29,611.93l-6.64-.21C642.9,610.66,645.13,610.09,647.29,611.93Z" transform="translate(-9.49 -6.49)"/><path class="cls-4" d="M480.5,211.33l-44,24.61q-28.93,16.22-57.88,32.44c-3.5,2-3.68,2-6-1.33-19-27.3-45.61-44.71-75.15-58.38a220.18,220.18,0,0,0-30.05-11.13c-1.17-.35-2.31-.79-3.94-1.35,2-2.76,3.75-5.23,5.52-7.72,1-1.47,2.19-2.9,3.1-4.46.72-1.24,1.48-2.77-.3-3.78-1.37-.79-2.44.12-3.23,1.18-1.63,2.19-3.19,4.41-4.77,6.63-7,9.93-14.49,19.54-23.41,27.9-6.27,5.88-13.1,10.92-21.28,13.86q-22.65,8.14-28.65-15.17c-2.08-8.12-1.39-16.19.82-24.19a71.19,71.19,0,0,1,13.89-26.26,157.48,157.48,0,0,1,37-32.69,43,43,0,0,0,4-2.79,2,2,0,0,0,.67-2.42,2.19,2.19,0,0,0-2.69-1.31c-1.39.4-2.72,1-4.09,1.46-6.31,2.22-12.43,5-19.05,6.37-10.89,2.25-17.13-2.15-18.55-13.16A39.9,39.9,0,0,1,204,104c7.35-27.3,32.53-48.84,60.65-52.52,13.31-1.74,26,.54,38.57,4.37,3.81,1.16,7.55,2.55,11.32,3.83,1,.36,2,.76,3.07,1.07a2.86,2.86,0,0,0,3-.69c1-1.11.7-2.33,0-3.5a65.88,65.88,0,0,1-6.07-12.14c-5.93-16.73.23-28.37,17.69-32a79.09,79.09,0,0,1,49.43,5.73c9.56,4.34,16.3,11.48,17.71,22.47a35.64,35.64,0,0,1-2.22,16.58,88.86,88.86,0,0,1-30.57,41.46,31.18,31.18,0,0,1-2.66,1.89,2.34,2.34,0,0,0-1.32,2.7,1.72,1.72,0,0,0,2.13,1.22c1.73-.3,2.66.92,3.67,1.92,14.39,14.17,30.28,26.58,46,39.23,23.54,19,43.89,41.25,64.42,63.3A28.8,28.8,0,0,1,480.5,211.33ZM347.42,126.88H345c-1.61,0-3.65-.21-3.72,2.06s1.9,2.25,3.58,2.33c10.6.44,20.14,4.32,29.13,9.53a164.94,164.94,0,0,1,63.72,66c.51.95.94,2,1.47,2.91a2.2,2.2,0,0,0,3.21,1,2.06,2.06,0,0,0,.75-2.85c-.71-1.67-1.53-3.29-2.39-4.88-11.38-21.06-26.88-38.6-45.57-53.41a123.35,123.35,0,0,0-31.72-18.71A59.85,59.85,0,0,0,347.42,126.88Z" transform="translate(-9.49 -6.49)"/><path class="cls-5" d="M441.17,238.54l21.92-12.29c5.7-3.2,11.41-6.36,17.07-9.62a4,4,0,0,1,4.9.13c25.36,17.09,52.76,30.41,80.39,43.31a105.88,105.88,0,0,1,16.67,9.16,40.65,40.65,0,0,1,5.48,4.45c4.36,4.35,4.1,8-.85,11.81-4.37,3.37-9.47,5.36-14.62,7.12-14,4.82-28.6,6.6-43.35,7a301.19,301.19,0,0,1-62.3-4.51c-4.87-.89-9.25,1.51-13.66,2.91-5.33,1.69-10.53,3.88-15.7,6.09a10.8,10.8,0,0,0-6.17,6.29c-2.11,5-4.54,9.88-6.8,14.83a110.29,110.29,0,0,1-12.68,21.52c-1.76,2.3-3.58,4.63-4.32,7.51s.59,4.68,3.48,4.76a16.14,16.14,0,0,0,4.27-.65,82.79,82.79,0,0,0,19-8c1.66-.89,3.12-2.49,5.62-2.09a22.23,22.23,0,0,1-1,6.39,50.61,50.61,0,0,0-1.39,6.93c-.36,4.21,1.85,6.55,6,6.57a22.49,22.49,0,0,0,6.42-1,81.65,81.65,0,0,0,25.79-12.56c1.32-1,2.52-2.09,3.89-3s2.61-3.12,4.59-2.11c1.63.84,1,2.94,1.13,4.51.43,6.15.65,12.32,1.2,18.46a4.21,4.21,0,0,1-1.76,4.19c-3.59,2.76-7.12,5.55-11.68,6.73-3.53.92-3.8,2-1.41,4.83a42,42,0,0,1,9.14,16.6c-22.42-8.21-24.72-8.66-41.05-8,2-3.28,5.27-4.51,8.28-6s6.37-2.62,9.54-3.95c1.22-.51,2.35-1.3,2.2-2.78-.19-1.85-1.68-2.06-3.21-2.2-30.51-2.78-54.83-17.48-75.55-39.17-2.06-2.16-2.78-3.73-.68-6.39,4.66-5.91,6-13.49,9.6-20,4.8-8.74,9.36-17.61,14.66-26.07,3.19-5.07,6.54-10,9.55-15.21a18,18,0,0,1,6.35-6.54c4.34-2.62,8.51-5.52,13.2-7.58,4.51-2,8.42-5,12.29-8,4.86-3.77,4.77-7.72-.11-11.52C444.29,240.45,442.87,239.65,441.17,238.54Z" transform="translate(-9.49 -6.49)"/><path class="cls-4" d="M473.92,197.19c1.83-1.83,4-2.22,6.05-2.88,18-5.82,36.38-9.94,55.47-9.37A52.38,52.38,0,0,1,557,190.09c13.38,6.5,19.35,18.59,16.55,33.2-1.91,9.94-6.88,18.65-10.9,27.75-1,2.27-2.45,1.55-4,.81-5.07-2.42-10.19-4.73-15.2-7.26-16.2-8.14-32.38-16.31-47.74-26-4.07-2.56-8.16-4.83-11-9.12C481.66,205,477.57,201.29,473.92,197.19Z" transform="translate(-9.49 -6.49)"/><path class="cls-5" d="M416,141.31c-4.95-4-9.66-7.89-14.4-11.72a2.35,2.35,0,0,1-.66-3.31c4.35-8.36,9.95-15.56,19-19.24,6.49-2.65,9.48-.37,9.54,6.72a25.25,25.25,0,0,1-3.93,13.34C422.65,131.86,419.34,136.36,416,141.31Z" transform="translate(-9.49 -6.49)"/><path class="cls-5" d="M431.64,154.38l-10.24-8.65c-.88-.74-1.55-1.53-.68-2.74,4.53-6.31,8-13.44,14.06-18.57,1.75-1.48,3.68-3.78,6.12-2.7,2.65,1.17,1.63,4.18,1.54,6.39a39.52,39.52,0,0,1-5.91,19C435.13,149.41,433.51,151.6,431.64,154.38Z" transform="translate(-9.49 -6.49)"/><path class="cls-5" d="M443.92,167.41c-2.62-3.06-4.73-5.54-6.85-8-.68-.79-1.92-1.52-1-2.68,3.18-3.92,4.79-9,8.8-12.26,2.05-1.7,4.1-4.31,7-3,3.1,1.43,2.66,4.8,2.58,7.68-.1,3.94-1.78,7.35-4,10.45C448.8,162,446.8,164,443.92,167.41Z" transform="translate(-9.49 -6.49)"/><path class="cls-5" d="M455.9,177.8l-7.72-7.91c2.76-3.1,4.95-6.86,8.81-9.07,3.24-1.85,5-1,5.67,2.71C463.56,168.31,460.77,174.21,455.9,177.8Z" transform="translate(-9.49 -6.49)"/><path class="cls-6" d="M312.78,52.44c.37.4.57,1,.18,1.3-.58.49-1.26.2-1.85-.19Z" transform="translate(-9.49 -6.49)"/><path class="cls-6" d="M447.14,137.11c-.29.44-.69.79-1.17.43s-.24-.87,0-1.31Z" transform="translate(-9.49 -6.49)"/><path class="cls-2" d="M385,397.9c-.14,1.36-1,1.84-2.25,1.71-1.75-.18-2.87-1.49-4.17-2.42-4-2.87-8-5.51-12.94-6.69-6.67-1.59-13,.13-19.25,1.85-14.4,4-25.8,12.13-33.52,25.09-.82,1.37-1.63,2.62-3.34,1.62-1.45-.85-.92-2.22-.28-3.36a47,47,0,0,1,3.12-5.08c11.56-15.53,27.33-23.32,46.36-25,10-.89,17.74,4.12,25.1,10A2.54,2.54,0,0,1,385,397.9Z" transform="translate(-9.49 -6.49)"/><path class="cls-2" d="M424.22,386.48c2.19.07,4.74,2.46,4.74,4.45a4.65,4.65,0,0,1-5.17,4.31c-2.43-.21-3.75-1.85-3.58-4.44C420.37,388.46,422.27,386.41,424.22,386.48Z" transform="translate(-9.49 -6.49)"/><path class="cls-2" d="M209.12,649.93a34.4,34.4,0,0,1,4.16-15.65,5.82,5.82,0,0,1,2.53-2.75c1.14-.59,2.3-1.27,3.4,0,.94,1.1.37,2.08-.43,2.86-3.18,3.1-4.18,7.21-4.91,11.27-1,5.59,0,10.86,4.29,15,2.58,2.53,5.5,4,9.3,2.78,1.62-.52,4-1.38,4.42,1.26.38,2.22-1.9,2.87-3.58,3.43-5.18,1.74-12.34-1.43-15.75-7.05C210.26,657.37,208.8,653.3,209.12,649.93Z" transform="translate(-9.49 -6.49)"/><path class="cls-2" d="M656,651.17c-9.68-1.61-16.23-7.72-13.53-18,.88-3.35,1.69-6.65,3.8-9.46a12,12,0,0,1,2.21-2.34c1.24-.93,2.81-1.34,3.89,0s0,2.43-1,3.24c-3.11,2.43-3.79,6.09-4.7,9.53-1.48,5.57.74,9.44,6.23,11.44,1.36.5,2.77.83,4.14,1.28s2.31,1.29,2,2.76C658.76,651.32,657.32,651.19,656,651.17Z" transform="translate(-9.49 -6.49)"/><path class="cls-2" d="M492.68,388.8a4,4,0,0,1-3.86,3.71c-1.89-.16-2.75-1.46-2.83-3.29-.09-2,1.07-3,2.83-3.29A3.36,3.36,0,0,1,492.68,388.8Z" transform="translate(-9.49 -6.49)"/><path class="cls-1" d="M530.62,540.45a4.75,4.75,0,0,1,4.49.37A5.08,5.08,0,0,1,530.62,540.45Z" transform="translate(-9.49 -6.49)"/><path class="cls-2" d="M347.42,126.88a59.85,59.85,0,0,1,16.08,4,123.35,123.35,0,0,1,31.72,18.71C413.91,164.44,429.41,182,440.79,203c.86,1.59,1.68,3.21,2.39,4.88a2.06,2.06,0,0,1-.75,2.85,2.2,2.2,0,0,1-3.21-1c-.53-.95-1-2-1.47-2.91a164.94,164.94,0,0,0-63.72-66c-9-5.21-18.53-9.09-29.13-9.53-1.68-.08-3.64-.12-3.58-2.33s2.11-2,3.72-2.06Z" transform="translate(-9.49 -6.49)"/></svg>