<?xml version="1.0" encoding="utf-8"?>
<!-- Generator: Adobe Illustrator 25.2.0, SVG Export Plug-In . SVG Version: 6.00 Build 0)  -->
<svg version="1.1" id="Layer_1" xmlns="http://www.w3.org/2000/svg" xmlns:xlink="http://www.w3.org/1999/xlink" x="0px" y="0px"
	 viewBox="0 0 2048 2048" style="enable-background:new 0 0 2048 2048;" xml:space="preserve">
<style type="text/css">
	.st0{fill:#020402;}
	.st1{fill:#22c55e;}
	.st2{fill:#787F79;}
	.st3{fill:#F0F7EF;}
	.st4{fill:#DCB3AA;}
	.st5{fill:#37B12E;}
</style>
<g>
	<path class="st0" d="M1086.48,314.73c40.32,0.28,80.49,2.62,120.51,7.73c37.99,4.85,75.54,11.98,112.51,21.79
		c40.15,10.65,79.37,24.13,117.45,40.91c30.77,13.56,60.98,28.23,89.43,46.09c28.45,17.85,55.86,37.3,81.64,58.96
		c33.21,27.9,63.58,58.57,90.65,92.45c23.18,29.01,43.53,59.89,61.11,92.65c22.26,41.48,39.54,84.88,51.61,130.35
		c7.82,29.47,13.36,59.35,16.85,89.67c4.47,38.85,5.31,77.75,2.68,116.7c-2.52,37.4-8.16,74.37-16.73,110.91
		c-8.9,37.95-20.62,74.95-35.24,111.1c-10.78,26.65-22.93,52.6-36.34,78.02c-19.9,37.71-42.57,73.68-67.82,107.99
		c-32.71,44.46-69.09,85.73-108.9,124c-40.41,38.85-83.96,73.82-130.05,105.64c-35.87,24.76-73.19,47.18-111.88,67.27
		c-36.73,19.07-74.36,36.18-113.05,50.9c-30.95,11.78-62.33,22.24-94.23,31.17c-43.64,12.22-87.82,21.78-132.68,28.29
		c-28.03,4.07-56.15,6.96-84.41,8.83c-38.12,2.52-76.25,2.51-114.35,0.61c-35.41-1.77-70.67-5.69-105.59-11.91
		c-41.3-7.35-82.01-17.15-121.88-30.44c-36.18-12.05-71.42-26.26-105.51-43.28c-49-24.48-94.56-54.26-136.57-89.46
		c-44.35-37.16-83.11-79.41-115.99-127.03c-21.95-31.79-40.72-65.41-56.13-100.83c-16.91-38.84-29.32-79.1-38.23-120.57
		c-12.45-57.97-15.13-116.48-11.21-175.37c3.04-45.61,11.25-90.4,23.16-134.58c10.28-38.16,23.72-75.13,39.74-111.18
		c16.13-36.32,34.94-71.23,56.08-104.92c23.3-37.14,49.18-72.38,77.53-105.77c39.88-46.96,83.78-89.85,131.78-128.51
		c27.24-21.95,55.38-42.65,84.66-61.8c32.26-21.1,65.49-40.53,99.82-58.09c24.71-12.64,49.79-24.45,75.38-35.17
		c31.4-13.15,63.33-24.8,95.84-34.97c34.59-10.82,69.6-19.93,105.07-27.27c22.31-4.62,44.8-8.28,67.38-11.41
		c28.38-3.93,56.87-6.72,85.47-8.06c16.78-0.79,33.62-0.14,50.43-0.14C1086.47,315.59,1086.48,315.16,1086.48,314.73z
		 M1818.12,986.84c2.11-17.57,0.88-35.16,0.78-53.15c-1.53,1.08-0.96,2.13-1.08,3.03c-0.93-12.24-1.38-24.55-2.89-36.72
		c-3.16-25.54-7.4-50.88-13.37-75.98c-6.75-28.35-15.61-55.96-26.39-82.97c-16.12-40.38-36.53-78.51-61.21-114.32
		c-20.68-30.01-43.74-58.05-69.42-83.92c-21.24-21.39-43.97-41.03-67.79-59.53c-30.18-23.44-62.99-42.64-96.15-61.29
		c-18.68-10.51-38.3-19.2-57.96-27.77c-16.93-7.38-34.24-13.79-51.62-19.93c-17.03-6.01-34.59-10.56-51.94-15.63
		c-20.72-6.06-41.82-10.59-63.01-14.51c-19.57-3.62-39.22-6.78-59.07-8.85c-23.12-2.41-46.18-5.16-69.46-5.54
		c-2.33-0.04-4.67-0.07-6.98-0.32c-12.08-1.28-24.25-1.2-36.32-0.9c-22.74,0.58-45.5,0.77-68.22,2.88
		c-12.73,1.18-25.49,2.11-38.21,3.51c-27.4,3.02-54.62,7.13-81.68,12.53c-20.84,4.15-41.53,8.82-62.13,14.02
		c-25.31,6.39-50.2,14.16-75,22.24c-29.2,9.52-57.72,20.9-85.83,33.22c-35.74,15.66-70.56,33.18-104.38,52.72
		c-27.59,15.94-54.57,32.82-80.63,51.1c-29.65,20.8-58.11,43.18-85.29,67.15c-12.31,10.86-24.81,21.51-36.76,32.75
		c-7.9,7.43-14.81,15.9-22.44,23.64c-26.88,27.28-51.65,56.35-74.78,86.87c-15.47,20.42-30.13,41.39-43.68,63.12
		c-13.01,20.86-25.33,42.12-36.47,64.06c-8.88,17.49-17.36,35.16-24.87,53.27c-9.22,22.22-17.53,44.75-24.81,67.72
		c-6.52,20.59-12.15,41.38-16.89,62.38c-4.09,18.12-6.97,36.52-9.69,54.93c-3.8,25.72-4.91,51.61-6.3,77.48
		c-1.16,21.63,0.92,43.23,2.62,64.78c2.4,30.5,7.45,60.55,14.56,90.35c7.11,29.81,16.54,58.77,28.1,87.09
		c10.81,26.48,23.53,52.02,38.18,76.6c14.98,25.12,31.65,49.04,49.99,71.82c20.37,25.31,42.82,48.68,66.88,70.48
		c18.24,16.54,37.38,31.99,57.46,46.26c19.92,14.16,40.54,27.18,61.78,39.3c22.52,12.85,45.6,24.64,69.33,34.97
		c29.49,12.83,59.74,23.73,90.59,32.99c19.1,5.73,38.4,10.72,57.83,14.91c29.84,6.44,59.97,11.44,90.39,14.74
		c26.31,2.85,52.64,4.9,79.07,5.53c36.96,0.88,73.87-0.06,110.72-3.59c20.51-1.97,40.96-4.3,61.35-7.26
		c31.57-4.59,62.84-10.77,93.76-18.49c33.83-8.44,67.26-18.31,100.16-30.01c40.13-14.27,79.31-30.72,117.49-49.54
		c34.58-17.05,68.08-36,100.66-56.68c23.47-14.9,46.3-30.67,68.41-47.46c30.86-23.44,60.46-48.38,88.45-75.23
		c25.22-24.19,49.41-49.34,71.86-76.12c20.92-24.95,40.64-50.8,58.75-77.9c13.13-19.64,25.63-39.66,37.16-60.23
		c13.77-24.57,26.34-49.77,37.29-75.79c10.77-25.59,20.57-51.5,28.84-77.99c5.74-18.4,10.69-37.04,14.68-55.88
		c4.02-18.99,7.55-38.09,10.01-57.4C1815.43,1031.93,1817.32,1009.44,1818.12,986.84z"/>
	<path class="st1" d="M1818.12,986.84c-0.8,22.6-2.69,45.09-5.55,67.55c-2.46,19.31-5.99,38.41-10.01,57.4
		c-3.99,18.83-8.94,37.47-14.68,55.88c-8.26,26.49-18.06,52.41-28.84,77.99c-10.95,26.01-23.52,51.21-37.29,75.79
		c-11.54,20.58-24.04,40.59-37.16,60.23c-18.11,27.1-37.83,52.95-58.75,77.9c-22.45,26.78-46.64,51.93-71.86,76.12
		c-27.99,26.85-57.59,51.8-88.45,75.23c-22.11,16.79-44.94,32.56-68.41,47.46c-32.57,20.67-66.07,39.63-100.66,56.68
		c-38.18,18.82-77.37,35.27-117.49,49.54c-32.9,11.7-66.33,21.57-100.16,30.01c-30.92,7.71-62.2,13.9-93.76,18.49
		c-20.39,2.96-40.84,5.29-61.35,7.26c-36.85,3.54-73.76,4.47-110.72,3.59c-26.43-0.63-52.76-2.68-79.07-5.53
		c-30.42-3.29-60.54-8.29-90.39-14.74c-19.43-4.2-38.73-9.18-57.83-14.91c-30.85-9.26-61.1-20.16-90.59-32.99
		c-23.74-10.33-46.81-22.12-69.33-34.97c-21.24-12.12-41.86-25.14-61.78-39.3c-20.08-14.27-39.22-29.73-57.46-46.26
		c-24.06-21.81-46.5-45.17-66.88-70.48c-18.33-22.78-35.01-46.7-49.99-71.82c-14.66-24.58-27.37-50.12-38.18-76.6
		c-11.55-28.32-20.99-57.28-28.1-87.09c-7.11-29.8-12.16-59.86-14.56-90.35c-1.69-21.55-3.78-43.16-2.62-64.78
		c1.39-25.87,2.5-51.76,6.3-77.48c2.72-18.42,5.6-36.81,9.69-54.93c4.74-21,10.37-41.8,16.89-62.38
		c7.28-22.97,15.59-45.51,24.81-67.72c7.51-18.11,15.99-35.78,24.87-53.27c11.14-21.94,23.46-43.2,36.47-64.06
		c13.55-21.73,28.21-42.7,43.68-63.12c23.13-30.52,47.9-59.58,74.78-86.87c7.62-7.74,14.54-16.21,22.44-23.64
		c11.95-11.24,24.45-21.9,36.76-32.75c27.18-23.97,55.64-46.35,85.29-67.15c26.06-18.28,53.04-35.16,80.63-51.1
		c33.82-19.54,68.64-37.06,104.38-52.72c28.11-12.32,56.62-23.69,85.83-33.22c24.8-8.09,49.68-15.86,75-22.24
		c20.6-5.2,41.28-9.87,62.13-14.02c27.07-5.39,54.28-9.51,81.68-12.53c12.71-1.4,25.48-2.33,38.21-3.51
		c22.72-2.11,45.48-2.3,68.22-2.88c12.07-0.31,24.24-0.38,36.32,0.9c2.31,0.24,4.65,0.28,6.98,0.32
		c23.27,0.38,46.34,3.13,69.46,5.54c19.85,2.07,39.5,5.23,59.07,8.85c21.19,3.92,42.29,8.45,63.01,14.51
		c17.36,5.07,34.91,9.62,51.94,15.63c17.37,6.14,34.69,12.54,51.62,19.93c19.66,8.57,39.27,17.26,57.96,27.77
		c33.16,18.65,65.97,37.85,96.15,61.29c23.82,18.5,46.55,38.14,67.79,59.53c25.68,25.87,48.75,53.91,69.42,83.92
		c24.68,35.82,45.08,73.94,61.21,114.32c10.78,27.01,19.64,54.62,26.39,82.97c5.97,25.1,10.2,50.44,13.37,75.98
		c1.51,12.17,1.96,24.48,2.89,36.72C1817.92,953.43,1818.02,970.13,1818.12,986.84z"/>
	<path class="st2" d="M1818.12,986.84c-0.1-16.71-0.2-33.41-0.3-50.12c0.13-0.9-0.44-1.95,1.08-3.03
		C1819,951.67,1820.23,969.26,1818.12,986.84z"/>
	<path class="st0" d="M612.34,662.82c-6.63,10.05-14.55,17.43-24.49,22.69c-27.29,14.4-53.74,1.86-68.02-19.1
		c-14.17-20.8-12.59-42.8-3.88-64.86c11.67-29.55,30.53-53.55,58.5-69.15c24.47-13.65,50.59-17.99,77.94-9.19
		c3.29,1.06,6.43,2.76,9.44,4.5c2.35,1.36,2.95,1.03,3.35-1.67c3.54-23.5,15.03-42.85,31.87-59.12
		c13.48-13.03,28.78-22.95,47.8-26.3c18.94-3.33,35.47,5.21,42.87,22.87c2.26,5.39,2.26,5.39,6.56,1.82
		c15.34-12.75,33-20.31,52.88-20.88c27.66-0.79,51.35,18.19,57.58,45.42c6.03,26.35,0.68,51.17-12.6,74.48
		c-6.15,10.8-13.16,20.82-23.28,28.35c-5.9,4.39-12.36,7.35-19.79,7.21c-3.88-0.08-4.39,1.5-3.93,4.79
		c3.99,29.06,11.26,57.33,19.31,85.5c6.08,21.28,14.61,41.37,25.55,60.51c3.34,5.84,2.92,12.72,6.15,18.79
		c16.76,31.47,39.18,56.86,72.66,71.29c7.14,3.08,13.93,7.05,19.45,12.89c8.16,8.64,8.42,19.31,0.41,28.1
		c-5.93,6.51-13.44,10.22-21.82,12.4c-5.63,1.46-11.21,3.2-16.92,4.3c-4.37,0.84-4.04,2.69-2.18,5.67
		c3.79,6.07,7.45,12.22,11.2,18.32c2.44,3.98,4.81,7.98,6.12,12.51c2.74,9.45-3.08,17.51-12.8,18.15
		c-10.64,0.7-19.78-3.96-29.09-7.88c-3.63-1.53-6.01-1.2-8.82,1.59c-9.42,9.37-21.9,13.06-34.9,4.96c-1.9-1.18-2.74-0.96-3.63,1.22
		c-3.91,9.57-7.43,19.25-9.74,29.34c-0.57,2.49-0.05,4.01,2.71,4.85c23.09,7,46.83,11.43,70.1,17.68c1.6,0.43,2.97-0.03,4.22-0.95
		c16.04-11.78,33.01-10.62,50.14-3.17c28.58,12.44,39.75,45.19,25.06,72.78c-2.17,4.07-3.63,8.67-8.19,11.02
		c-1.71,0.88-0.73,2.28-0.3,3.49c2.07,5.9,2.94,11.99,2.2,18.19c-0.45,3.75,0.73,4.95,4.55,4.84c15.65-0.46,31.3-0.74,46.95-0.92
		c44.15-0.49,88.31-0.54,132.45-1.48c26.65-0.57,53.32-0.09,79.95-0.97c24.82-0.82,49.65-0.06,74.45-0.93
		c26.32-0.92,52.64-0.49,78.96-0.95c10.49-0.18,20.98-0.59,31.47-0.64c10.45-0.05,16.57,7.85,14.23,17.93
		c-13.49,58.12-26.94,116.26-40.43,174.38c-7.44,32.05-14.93,64.1-22.46,96.13c-1.76,7.51-6.54,11.59-14.23,11.33
		c-15.64-0.54-31.26-1.47-46.88-2.38c-12.62-0.73-25.23-1.73-37.84-2.51c-38.36-2.35-76.73-4.67-115.09-6.96
		c-18.93-1.13-37.88-2.12-56.8-3.3c-23.91-1.5-47.8-3.19-71.71-4.7c-13.12-0.83-26.25-1.44-39.38-2.16
		c-2.31-0.13-4.06-0.21-4.16,3.17c-0.96,32.96-1.95,65.92-3.33,98.86c-0.24,5.64,1.99,6.69,6.7,6.89
		c11.3,0.47,22.59,1.27,33.89,1.91c36.22,2.06,72.44,4.09,108.66,6.19c33.06,1.91,66.11,3.92,99.17,5.83
		c19.94,1.15,39.88,2.19,59.82,3.28c12.63,0.69,25.27,1.27,37.89,2.12c9.11,0.62,13.27,5.43,13.17,14.65c0,0.17,0.02,0.34-0.01,0.5
		c-1.17,7.04,1.18,11.95,6.62,17.19c20.5,19.75,26.44,51.33,15.19,74.88c-11.92,24.97-37.42,37.01-63.98,29.11
		c-11.78-3.5-24.03-4.8-35.55-9.54c-28.95-11.9-45-39.35-40.5-70.41c0.72-4.95,1.43-9.88,2.8-14.68c0.75-2.65,0.51-3.95-2.74-4.1
		c-19.45-0.86-38.89-1.82-58.33-2.89c-28.41-1.56-56.81-3.3-85.23-4.84c-16.29-0.88-32.59-1.46-48.88-2.3
		c-3.24-0.17-4.35,0.32-3.57,4.04c3.52,16.8,2.86,33.34-3.78,49.45c-7.66,18.59-24.32,29.88-44.34,29.97
		c-7.3,0.03-14.58,1.1-21.86-0.52c-3.34-0.74-6.58,0.82-9.82,1.41c-31.93,5.86-62.93-15.2-69.49-48.2
		c-5.58-28.08,10.91-60.42,38.03-72.35c3.66-1.61,5.22-3.61,5.14-7.33c-0.01-0.5,0.09-1,0.1-1.49c0.46-26.65,0.89-53.3,1.43-79.94
		c0.06-3.01-0.85-3.93-3.93-4.07c-18.31-0.85-36.64-0.8-54.95-1.09c-2.02-0.03-3.85-0.2-4.96,2.22
		c-10.19,22.3-27.82,37.86-47.15,51.87c-22.27,16.13-44.92,31.67-69.45,44.23c-3.11,1.59-2.68,2.66-0.69,4.99
		c12.37,14.52,23.32,29.94,29.56,48.23c3.66,10.73,4.42,21.43-0.36,32.07c-7.02,15.62-23.4,20.47-39.9,19.19
		c-17.99-1.4-34.08-8.52-50.1-15.98c-19.8-9.21-39.45-18.65-56.01-33.33c-4.87-4.32-9.52-8.85-13.83-13.71
		c-1.69-1.9-3.36-2.8-5.96-2.77c-46.15,0.54-92.3,0.62-138.44,1.62c-22.82,0.49-45.65,0.13-68.46,0.87
		c-25.48,0.83-50.97,0.72-76.46,0.87c-6.09,0.03-10.04-2.76-10.93-7.39c-1.27-6.56,2.95-11.39,10.08-11.8
		c20.47-1.19,40.97-0.62,61.46-0.93c31.15-0.47,62.31-0.48,93.45-1.28c20.32-0.52,40.64-0.42,60.96-0.72
		c18.65-0.28,37.3-0.69,55.96-0.91c3.07-0.04,3.9-0.53,3.11-3.91c-4.12-17.59,1.42-32.18,14.73-43.93
		c15.85-14,33.51-25.8,49.09-40.14c5.75-5.29,11.88-10.17,16.98-16.17c12.92-15.21,13.74-31.29,1.95-47.34
		c-4.23-5.76-9.09-10.99-14.29-15.97c-3.25-3.12-4.52-2.18-6.61,0.83c-7.78,11.21-15.78,22.27-23.61,33.46
		c-12.06,17.23-25.18,33.45-41.02,47.5c-22.03,19.55-47.11,24.83-75.28,18.02c-20.08-4.85-38.43-13.9-56.72-23.13
		c-6.09-3.07-12.37-5.8-18.32-9.11c-2.79-1.55-3.5,0.37-4.73,1.74c-12.33,13.63-26.25,25.07-43.82,31.34
		c-28.23,10.08-53.45-7.25-55.63-37.28c-1.86-25.63,5.42-49.02,15.62-71.79c8.38-18.73,18.16-36.77,31.83-52.28
		c8.39-9.52,17.9-17.63,31.91-16.81c10.26,0.6,17.47,6.95,24.41,13.41c8.41,7.83,16.32,16.19,24.55,24.22
		c5.85,5.71,12.16,10.86,19.23,15.05c10.22,6.05,17.34,5.29,26.24-2.72c6.38-5.74,11.39-12.58,16.14-19.63
		c9.76-14.5,19.22-29.21,29.19-43.56c2.59-3.73,2.32-6.05-0.33-9.41c-15.2-19.33-25.01-41.14-29.03-65.45
		c-1.08-6.55-1.88-13.17-2.45-19.79c-0.24-2.73-1.34-3.32-3.75-3.2c-18.62,0.89-37.25,1.63-55.87,2.6
		c-8.48,0.44-16.96,0.64-25.44,1.03c-38.09,1.76-76.2,3.07-114.31,4.51c-2.5,0.09-5.01,0.17-7.49,0.01c-5.44-0.35-9.22-4.17-9.3-9.2
		c-0.09-5.39,3.58-9.52,9.18-9.88c10.96-0.71,21.92-1.35,32.89-1.79c20.29-0.82,40.59-1.4,60.89-2.21
		c33.43-1.33,66.86-2.75,100.29-4.16c1.82-0.08,3.7-0.77,5.45-0.51c5.72,0.86,7.6-1.51,8.11-7.14c2.47-27.22,10.41-53,20.18-78.45
		c15.8-41.17,34.85-80.63,58.58-117.81c0.27-0.42,0.44-0.92,0.77-1.28c4.59-5.12,6.24-10.33,3.89-17.54
		c-2.46-7.54-0.48-15.5,2.61-22.85c1.59-3.77,2.35-7.29,1.28-11.5c-3.28-12.9-0.95-25.39,5.66-36.56
		c4.03-6.81,5.86-13.43,6.23-21.27c0.64-13.8,7.58-24.3,20.16-30.47c4.31-2.11,4.81-3.75,2.73-8.46
		c-3.89-8.81-9.41-11.36-19.04-11.34c-59.31,0.13-118.63-0.26-177.95-1.04c-34.16-0.45-68.31-0.42-102.46-0.67
		c-0.83-0.01-1.67,0.02-2.5-0.03c-6.29-0.38-10.9-4.72-10.85-10.2c0.05-5.06,4.73-9.41,10.84-9.6c6.33-0.2,12.66-0.05,19,0.02
		c24.99,0.28,49.98,0.71,74.97,0.88c61.15,0.42,122.3,0.74,183.45,1.07c1.78,0.01,4.21,0.89,5.2-0.61c1.25-1.9-0.95-3.58-1.85-5.28
		c-16.67-31.12-34.28-61.7-52.15-92.14C614.7,666.51,613.7,664.99,612.34,662.82z M1257.9,1213.81c-0.27,1.11-0.71,2.2-0.8,3.32
		c-1.6,20.88-3.07,41.77-4.79,62.64c-0.29,3.55,0.98,4.24,4.12,4.19c21.63-0.39,43.27-0.71,64.91-0.88c3.05-0.03,4.09-1.34,4.5-4
		c0.83-5.41,1.79-10.81,2.69-16.21c2.52-15.06,5.04-30.12,7.56-45.19c0.18-2.46,3.36-6.51-1.91-6.56
		c-24.43-0.26-48.87-0.07-73.3-0.08C1258.87,1211.03,1257.63,1211.52,1257.9,1213.81z M626.48,538.68
		c-10.81-0.22-20.22,1.23-29.07,4.78c-36.12,14.49-57.57,41.94-67.04,78.86c-4.36,16.99,0.81,31.97,15.2,42.97
		c9.54,7.3,19.87,8.74,30.95,3.75c11.23-5.06,18.85-13.34,22.7-25.09c3.68-11.2,12.75-13.13,20.85-4.42
		c3.64,3.92,6.43,8.48,9.15,13.06c25.81,43.48,51,87.31,73.45,132.64c3.53,7.13,8.16,11.87,15.37,15.1
		c14.87,6.67,29.81,10.05,45.94,4.94c7.11-2.25,14.5-3.6,21.76-5.39c30.65-7.56,58.17-20.68,79.87-44.4
		c2.24-2.45,2.92-4.05,1.08-7.16c-4.05-6.86-7.9-13.89-10.6-21.42c-11.58-32.26-21.03-65.11-27.07-98.88
		c-2.02-11.29-4.33-22.58-4.02-34.15c0.26-9.6,6.54-16,15.19-14.23c10.43,2.14,17.89-1.77,24.06-9.35
		c16.39-20.14,25.4-42.79,22.61-69.2c-2.77-26.14-23.8-41.32-49.47-35.67c-16.34,3.6-29.67,12.26-40.56,24.84
		c-2.49,2.88-4.56,6.17-8.02,8.12c-6.03,3.41-12.88,0.7-14.61-6c-0.7-2.72-0.92-5.57-1.21-8.38c-1.93-18.62-9.71-25.81-25.89-23.84
		c-1.8,0.22-3.65,0.59-5.33,1.24c-28.37,11.07-46.87,31.32-55.67,60.39c-2.6,8.59-2.17,17.4-1.08,26.23
		c0.51,4.12-1.32,7.61-4.98,9.65c-3.87,2.15-7.73,1.48-11.25-1.08c-3.1-2.25-6.22-4.48-9.2-6.87
		C649.52,541.71,638.16,537.82,626.48,538.68z M852.3,959.22c-2.49,0.77-4.09,1.18-5.62,1.75c-14.62,5.53-29.5,10.36-44.66,13.99
		c-18.52,4.43-37.37,3.57-56.13,0.93c-21.47-3.02-42.12-8.28-59.49-22.28c-0.77-0.62-1.55-1.58-2.6-1.17
		c-5.08,2.01-9.88,0.03-14.62-1.2c-3.09-0.8-4.6-0.28-6.24,2.56c-26.81,46.46-51.16,94.07-67.18,145.49
		c-6.86,22.04-11,44.54-10.04,67.81c0.15,3.73,1.52,4.94,4.91,5.72c23.65,5.4,47.27,11,70.89,16.54
		c30.58,7.18,61.17,14.38,91.75,21.57c33.98,7.99,67.97,15.89,101.89,24.1c3.48,0.84,4.64,0.02,5.68-2.89
		c4.28-11.91,7.7-24.04,9.78-36.54c0.46-2.79,0.09-3.7-3-3.77c-22.65-0.47-45.3-1.22-67.96-1.73c-24.49-0.55-48.98-0.87-73.47-1.45
		c-8.25-0.19-12.75-4.21-12.5-10.48c0.24-5.99,4.93-9.43,12.89-9.33c8,0.11,15.99,0.3,23.99,0.48c39.48,0.9,78.96,1.77,118.44,2.79
		c3.26,0.08,4.21-0.76,4.22-4.05c0.01-7.35-0.52-14.64-1.09-21.95c-0.19-2.44-1.23-3.05-3.4-3.14c-6.65-0.28-13.3-1.01-19.95-1.01
		c-20.66,0.01-41.32,0.45-61.97,0.42c-27.85-0.04-53.53-7.23-76.48-23.52c-28.86-20.48-52.66-45.86-73.19-74.48
		c-3.06-4.27-2.59-9.13,0.91-12.15c3.69-3.19,8.65-2.77,12.51,1.21c1.97,2.03,3.78,4.22,5.56,6.42
		c14.98,18.62,31.72,35.52,49.96,50.92c15.24,12.88,31.52,23.97,51.4,28.56c15.55,3.59,31.33,4.05,47.19,3.43
		c20.65-0.82,41.3-1.48,61.94,0.19c8.3,0.67,16.51,2.18,24.87,2.2c9.91,0.03,14.81-3.18,18.89-12.39c3.72-8.38,4.24-17.41,5.36-26.3
		c1.72-13.66-0.53-17.16-13.57-22c-1.71-0.64-3.44-1.23-5.19-1.77c-20.14-6.23-40.87-10.39-60.77-17.55
		c-19.27-6.93-37.96-15.15-56.55-23.65c-3.47-1.59-6.23-3.87-6.82-7.97c-1.19-8.2,6.1-13.41,14.54-9.96
		c9.84,4.03,19.39,8.74,29.18,12.88c7.99,3.38,16.14,6.37,24.71,9.72C841.89,1003.11,844.8,981.27,852.3,959.22z M835.81,1386
		c0,0.68,0,1.37,0,2.05c14.32,0,28.64-0.25,42.95,0.14c4.95,0.14,5.73-1.66,5.65-5.95c-0.37-20.73-8.35-38.55-20.99-54.42
		c-19.08-23.96-39.08-47.18-57.25-71.87c-2.09-2.84-4.48-5.7-3.97-9.41c0.51-3.72-1.36-4.29-4.32-4.98
		c-30.78-7.1-61.53-14.33-92.28-21.56c-37.38-8.79-74.76-17.56-112.1-26.48c-4.32-1.03-4.76,0.06-3.87,4.06
		c5.58,25.04,19.19,45.46,36.26,63.94c18.81,20.37,40.28,37.79,61.34,55.69c16.09,13.68,32.81,26.7,46,43.49
		c17.34,22.07,18.36,48.14,2.35,69.63c-6.11,8.2-13.73,14.99-21.58,21.42c-3.84,3.14-2.81,4.33,0.67,6.5
		c16,9.92,31.64,20.41,45.83,32.82c4.29,3.75,7.47,3.93,12.15,1.1c26.52-16.05,52.09-33.49,76.84-52.13
		c10.45-7.87,19.6-17.02,26.86-27.96c0.7-1.06,2.01-2.18,1.37-3.52c-0.69-1.45-2.38-0.71-3.62-0.77
		c-6.98-0.32-13.97-0.64-20.96-0.78c-19.98-0.41-39.96-0.75-59.94-1.08c-2.36-0.04-4.68-0.22-6.85-1.15
		c-3.91-1.67-6.1-4.79-6.03-8.96c0.07-4.11,2.14-7.26,6.16-8.86c2.38-0.94,4.85-1,7.36-0.99C807.84,1386.02,821.82,1386,835.81,1386
		z M814.12,950.83c-21.01-8.04-18.35-22.81-9.99-34.4c5.88-8.15,12.7-15.41,20.29-21.97c5.33-4.6,10.08-9.66,14-15.53
		c2.96-4.42,5.98-8.85,10.01-12.41c4.41-3.9,8.19-4.35,13.26-1.75c11.11,5.69,22.64,10.41,34.36,14.7
		c14.21,5.21,28.5,5.98,43.09,1.63c7.64-2.28,15.44-4.03,23.15-6.09c3.39-0.9,6.54-2.3,9.46-4.34c2.9-2.03,2.76-3.59,0.03-5.6
		c-5-3.67-10.56-6.33-16.13-8.92c-29.84-13.9-52.4-35.59-68.45-64.14c-3.93-6.99-7.19-14.36-10.46-20.95
		c-3.37,3.1-6.75,6.31-10.25,9.38c-3.62,3.19-7.18,6.48-11.06,9.34c-32.25,23.8-69.92,32.25-108.54,37.64
		c-4.03,0.56-5.2,1.84-5.82,5.32c-2.28,12.89-7.94,24.35-15.97,34.52c-3.28,4.16-4.83,8.44-5.19,13.62
		c-0.73,10.36-3.42,20.05-11.54,27.32c-1.74,1.56-1.75,3.49-1.86,5.46c-0.45,8.05-1.96,15.86-5.63,23.09
		c-1.01,1.98-0.59,2.95,1.07,4.07c4.15,2.81,8.44,5.36,13.12,7.16c23.6,9.08,48.11,11.39,73.13,9.43
		C796.88,956.74,805.09,954.09,814.12,950.83z M519.27,1352.29c-7.6,19.51-15.58,38.34-26.34,55.84c-1.25,2.02-0.76,2.92,1.17,3.75
		c4.13,1.76,8.24,3.59,12.35,5.38c16.46,7.17,32.65,15.09,49.92,20.2c19.69,5.83,39,6.96,56.71-6.23
		c9.54-7.1,18.12-15.2,25.82-24.22c15.49-18.15,28.05-38.45,42.12-57.65c5.38-7.33,5.23-7.4-1.88-13.33
		c-21.35-17.82-42.9-35.42-62.25-55.46c-3.1-3.21-4.24-3.16-6.65,0.74c-11.19,18.12-21.06,37.13-34.45,53.79
		C560.78,1353.81,542.71,1364.63,519.27,1352.29z M963.96,1372.12c0.82-13.01-1.34-25.86-2.09-38.79
		c-0.71-12.11-1.92-24.19-2.94-36.28c-1.61-19.03-3.28-38.06-4.87-57.09c-1.12-13.41-2.21-26.83-3.16-40.25
		c-0.31-4.39-1.94-5.9-6.68-6.09c-16.14-0.66-32.29-0.31-48.41-1.1c-4.12-0.2-5.16,1.2-5.64,4.53
		c-4.46,31.23-16.39,59.43-34.57,85.08c-1.55,2.18-1.43,3.57,0.32,5.56c4.83,5.49,9.35,11.26,14.13,16.81
		c20.17,23.41,34.75,49.14,34.12,81.26c-0.05,2.48,1.23,3.09,3.4,3.13c17.64,0.34,35.27,0.69,52.91,1.14
		c2.56,0.06,3.61-0.77,3.54-3.4C963.87,1381.78,963.96,1376.95,963.96,1372.12z M1156.16,1273.72c-0.08,0-0.16,0-0.23,0
		c0,2.33,0.22,4.69-0.05,6.99c-0.39,3.29,0.76,4.37,4.1,4.31c22.97-0.41,45.93-0.7,68.9-0.91c2.8-0.03,3.85-1.08,3.99-3.76
		c0.3-5.64,0.76-11.28,1.2-16.91c1.21-15.58,2.25-31.17,3.77-46.71c0.46-4.71-0.79-5.95-5.43-5.86c-22.3,0.46-44.6,0.62-66.91,0.84
		c-6.91,0.07-7,0-7.28,7.15C1157.48,1237.14,1156.84,1255.43,1156.16,1273.72z M1387.2,1384.78c3.19-0.01,6.75,1.64,7.95-3.8
		c5.57-25.12,11.5-50.16,17.41-75.21c0.66-2.78,0.32-3.99-2.86-3.94c-21.63,0.34-43.26,0.59-64.89,0.83
		c-2.1,0.02-3.41,0.67-3.8,2.98c-4.02,23.73-7.99,47.47-12.27,71.15c-0.74,4.11,0.94,4.83,4.18,5
		C1351.02,1382.79,1369.11,1383.79,1387.2,1384.78z M1300.27,1191.15c0-0.03,0-0.07,0-0.1c12.16,0,24.32-0.08,36.48,0.06
		c3,0.03,4.56-0.82,5.08-3.94c3.15-19.01,6.35-38.02,9.73-56.99c0.57-3.19-0.11-4.26-3.34-4.09c-6.65,0.35-13.3,0.65-19.96,0.71
		c-19.16,0.17-38.32,0.25-57.48,0.27c-4.56,0.01-6.81,0.95-7.18,6.57c-1.15,17.59-2.62,35.16-3.99,52.73
		c-0.36,4.58,1.05,4.88,4.65,4.84C1276.28,1191.07,1288.28,1191.15,1300.27,1191.15z M1395.96,1210.19c0,0.05,0,0.1,0,0.15
		c-8.99,0-17.98,0-26.97,0c-11.36,0.01-11.36,0.01-13.22,11.09c-0.08,0.49-0.24,0.97-0.33,1.46c-3.17,18.31-6.25,36.65-9.59,54.93
		c-0.74,4.07-0.08,5.3,4.41,5.19c21.29-0.54,42.59-0.75,63.89-0.88c2.93-0.02,4.1-0.99,4.73-3.7c4.88-21.2,9.84-42.38,14.83-63.55
		c0.79-3.37,0.05-4.83-3.8-4.76C1418.61,1210.32,1407.28,1210.19,1395.96,1210.19z M1009,1211.98c0,0.04,0,0.08,0,0.13
		c-10.49,0-21,0.28-31.47-0.12c-4.77-0.18-5.98,1.22-5.58,5.82c1.88,21.69,3.55,43.4,5.17,65.12c0.28,3.79,2.44,4.02,5.42,3.97
		c19.81-0.33,39.62-0.64,59.43-0.75c3.35-0.02,4.17-1.15,4.2-4.32c0.15-21.81,0.4-43.62,0.81-65.42c0.07-3.54-1-4.56-4.5-4.49
		C1031.32,1212.11,1020.16,1211.98,1009,1211.98z M978.95,1604.27c4.56,0.25,9.91-1.34,15.31-3.24
		c23.85-8.4,36.72-38.77,26.15-61.79c-1.15-2.51-2.5-3.36-5.19-3.5c-14.11-0.72-28.21-1.74-42.31-2.5
		c-5.31-0.29-8.93-2.72-10.34-7.77c-1.09-3.9-2.87-2.64-4.95-1.19c-7.13,4.97-12.35,11.53-16.12,19.32
		C927.6,1572.31,946.75,1604.36,978.95,1604.27z M1399.97,1191.04c0-0.09,0-0.18,0-0.27c11.66,0,23.33-0.13,34.99,0.08
		c3.43,0.06,4.51-1.26,5.21-4.4c4.2-18.82,8.44-37.63,13.09-56.34c1.15-4.64,0.02-5.29-4.25-5.21c-23.98,0.48-47.97,0.86-71.95,0.92
		c-4.22,0.01-5.39,1.77-5.97,5.27c-3.07,18.52-6.07,37.05-9.46,55.51c-0.73,3.96,0.45,4.52,3.84,4.48
		C1376.97,1190.97,1388.47,1191.04,1399.97,1191.04z M1102.99,1211.83c0,0.04,0,0.08,0,0.12c-10.66,0-21.31,0.01-31.97-0.01
		c-2.27-0.01-4.17-0.15-4.27,3.19c-0.66,22.46-0.87,44.93-0.8,67.4c0.01,2.61,0.94,3.49,3.51,3.44c21.13-0.37,42.27-0.67,63.41-0.91
		c2.38-0.03,3.1-0.92,3.2-3.23c0.91-21.93,1.88-43.85,2.97-65.77c0.16-3.24-0.7-4.37-4.09-4.3
		C1124.3,1211.96,1113.65,1211.83,1102.99,1211.83z M1197.29,1191.86c0-0.2,0-0.4,0-0.6c12.82,0,25.64-0.07,38.46,0.05
		c2.97,0.03,4.2-0.85,4.16-3.95c-0.04-3.31,0.44-6.63,0.68-9.95c1.13-15.26,2.21-30.52,3.41-45.78c0.22-2.75-0.55-3.87-3.52-3.83
		c-24.98,0.4-49.97,0.7-74.95,0.97c-2.43,0.03-3.55,0.66-3.64,3.37c-0.61,18.47-1.28,36.93-2.15,55.39
		c-0.17,3.7,1.17,4.45,4.54,4.39C1175.29,1191.75,1186.29,1191.86,1197.29,1191.86z M1152.21,1365.43
		c-1.44,4.86,1.34,5.67,6.11,5.73c8.81,0.12,17.6,0.97,26.4,1.52c12.45,0.78,24.91,1.51,37.36,2.37c2.78,0.19,3.86-0.76,3.95-3.59
		c0.14-4.82,0.6-9.63,0.97-14.43c1.23-16.08,2.4-32.18,3.8-48.25c0.31-3.56-0.22-5.07-4.3-4.98c-22.48,0.46-44.97,0.71-67.45,0.87
		c-3.27,0.02-4.22,1.08-4.34,4.29C1154.01,1327.57,1153.09,1346.19,1152.21,1365.43z M1359.42,1630
		c7.95-0.03,17.61-5.14,24.14-15.47c11.2-17.73,6.1-43.38-9.71-58.4c-1.38-1.31-2.97-1.28-4.62-1.38
		c-14.61-0.84-29.23-1.5-43.82-2.62c-5.29-0.41-7.9,0.53-10.54,6.08c-4.79,10.08-6.73,20.02-4.94,30.89
		C1313.62,1611.58,1333.56,1629.66,1359.42,1630z M1288.71,1302.9c0,0.22,0,0.43,0,0.65c-10.48,0-20.97-0.27-31.44,0.09
		c-7,0.24-6.83,0.65-7.31,7.85c-1.35,20.07-2.63,40.15-4.43,60.17c-0.38,4.2,1.17,4.91,4.37,5.1c18.1,1.07,36.2,2.06,54.29,3.25
		c3.27,0.21,4.37-1.11,4.87-4.06c3.89-22.92,7.87-45.82,11.86-68.72c0.54-3.1-0.16-4.49-3.73-4.41
		C1307.7,1303.04,1298.21,1302.9,1288.71,1302.9z M1103.45,1192.08c0-0.06,0-0.11,0-0.17c10.83,0,21.66-0.03,32.49,0.03
		c2.37,0.01,4.05-0.01,4.15-3.28c0.56-18.3,1.26-36.6,2.1-54.89c0.17-3.64-0.73-4.95-4.63-4.87c-22.15,0.49-44.3,0.8-66.45,0.99
		c-3.41,0.03-4.16,1.31-4.15,4.42c0.06,17.83,0.05,35.66-0.18,53.49c-0.05,3.7,1.37,4.39,4.67,4.34
		C1082.12,1191.97,1092.78,1192.08,1103.45,1192.08z M1047.11,1160.97c0.23,0,0.47,0,0.7,0c0-9.15-0.07-18.3,0.05-27.45
		c0.03-2.56-0.73-3.6-3.39-3.5c-13.46,0.52-26.95-0.22-40.4,0.83c-1.56,0.12-2.91,0.37-4.03,1.57
		c-8.21,8.75-18.64,13.55-29.95,16.72c-2.54,0.71-3.48,1.95-3.24,4.6c1.07,11.9,2.05,23.81,2.93,35.73
		c0.19,2.64,1.41,3.47,3.81,3.35c4.15-0.21,8.3-0.49,12.45-0.51c18.8-0.11,37.6-0.24,56.41-0.11c3.75,0.03,4.86-1.06,4.76-4.78
		C1046.93,1178.6,1047.11,1169.78,1047.11,1160.97z M1101.47,1304.91c0,0.19,0,0.38,0,0.57c-10.48,0-20.95,0.02-31.43-0.01
		c-3-0.01-4.28,0.98-4.29,4.37c-0.04,16.96-0.3,33.92-0.7,50.88c-0.08,3.4,1.02,4.88,4.33,5.07c19.58,1.08,39.16,2.16,58.73,3.35
		c2.93,0.18,4.12-0.63,4.25-3.76c0.8-19.09,1.74-38.18,2.73-57.26c0.18-3.39-1.9-3.22-4.17-3.22
		C1121.1,1304.93,1111.28,1304.91,1101.47,1304.91z M1014.19,1305.9c0,0.13,0,0.26,0,0.39c-9.65,0-19.29,0.01-28.94,0
		c-3.9-0.01-5.93,1.05-5.43,5.79c1.57,14.85,2.76,29.74,3.85,44.63c0.23,3.1,1.62,3.96,4.29,4.12c17.91,1.03,35.82,2.07,53.73,3.2
		c2.96,0.19,4.14-0.65,4.14-3.81c-0.02-16.8,0.08-33.6,0.29-50.4c0.04-3.05-0.93-4.03-3.99-3.98
		C1032.82,1306,1023.5,1305.9,1014.19,1305.9z M935.7,1083.58c-0.48,8.83-1.73,17.55-3.68,26.15c-1.36,6.02-3.42,11.83-6.78,17.06
		c-1.64,2.55,0.1,3.11,1.89,3.83c7.49,3.03,15.36,2.86,23.14,2.3c11.78-0.85,22.92-4.03,32.48-11.34
		c10.77-8.23,13.28-21.92,5.34-32.72c-10.61-14.42-25.04-20.97-43.04-18.24c-9.19,1.39-9.16,1.63-9.34,10.96
		C935.69,1082.25,935.7,1082.91,935.7,1083.58z M1006.01,1399.61c0.11,0,0.22,0,0.34,0c0-4.83-0.35-9.69,0.12-14.46
		c0.31-3.12-0.94-3.83-3.44-4.03c-5.47-0.43-10.98,0.03-16.42-1c-2.88-0.55-2.67,1.63-2.72,3.49c-0.28,10.81-0.58,21.62-0.85,32.42
		c-0.2,7.98-0.38,15.97-0.55,23.95c-0.5,23.61-0.99,47.23-1.51,70.85c-0.04,1.88,0.27,3.22,2.59,3.32
		c4.98,0.21,9.96,0.47,14.92,0.89c2.96,0.25,3.64-1.06,3.66-3.76c0.03-4.48,0.55-8.95,0.69-13.43
		C1003.93,1465.1,1004.96,1432.35,1006.01,1399.61z M936.68,1052.3c20.3-5.23,37.41-0.11,53.41,10.64c2.86,1.92,5.05,7.04,8.38,5.41
		c2.94-1.44,3.88-6.33,5.02-9.98c4-12.81,1.15-24.51-8.47-33.31c-9.87-9.03-22.03-13.07-35.45-8.03
		c-5.02,1.88-10.68,4.86-12.38,9.78C944.29,1035.22,942.77,1044.08,936.68,1052.3z M859.02,1028.87c-0.29,1.69,0.62,3.32,4.25,4.38
		c16.74,4.86,34.09,7.63,50.21,14.59c1.19,0.51,2.16,0.27,3.1-0.76c5.67-6.21,10.61-12.8,12.19-21.36c0.4-2.18,0.1-3.19-2.38-3.78
		c-20.69-4.92-41.33-10.1-61.36-17.34c-2.6-0.94-3.65-0.4-3.88,2.34C860.54,1013.73,859.83,1020.53,859.02,1028.87z
		 M1026.78,1511.22c-3.28-0.52-4.98-0.3-5.15,2.6c-0.17,3,2.03,2.04,3.42,2.21c11.4,1.38,22.89,1.54,34.34,2.14
		c29.06,1.53,58.12,3.21,87.18,4.78c14.62,0.79,29.24,1.45,43.86,2.23c35.87,1.92,71.74,3.88,107.61,5.84
		c20.76,1.14,41.52,2.31,62.27,3.49c1.46,0.08,3.18,0.81,3.52-1.45c0.34-2.29-1.49-2.14-2.95-2.32c-0.99-0.12-1.97-0.34-2.97-0.4
		c-19.92-1.14-39.85-2.29-59.77-3.39c-19.77-1.09-39.56-1.8-59.29-3.23c-28.04-2.04-56.11-3.35-84.17-4.86
		c-17.43-0.94-34.86-2.05-52.29-3.09C1076.82,1514.22,1051.26,1512.68,1026.78,1511.22z M934.9,1173.99c3.67,0,6.51-0.15,9.32,0.04
		c2.95,0.21,4.29-0.6,3.92-3.87c-0.56-4.94-0.93-9.93-1.01-14.9c-0.04-2.81-1.32-3.34-3.67-3.27c-6.72,0.21-13.24-1.11-19.55-3.25
		c-4.74-1.61-8.67-5.64-13.14-6.79c-4.56-1.18-9.55,2.92-14.75,2.89c-0.17,0-0.34,0.03-0.5,0.01c-3.4-0.41-3.98,1.55-3.47,4.26
		c1.25,6.59,0.92,13.26,0.77,19.89c-0.07,3.12,1.1,4,4.05,4C909.83,1173,922.8,1173.07,934.9,1173.99z M824.81,1247.94
		c3.44,4.49,6.16,8.05,8.89,11.6c9.35,12.2,9.29,12.17,15.94-1.9c1.22-2.59,1.04-3.82-1.92-4.46
		C840.44,1251.59,833.18,1249.86,824.81,1247.94z"/>
	<path class="st3" d="M1664.25,927.91c0.37,23.76-2.21,50.16-10.4,75.8c-3.15,9.88-7.56,19.14-13.69,27.58
		c-14.85,20.46-37.4,23.02-56.56,6.42c-15.26-13.21-25.7-29.99-35.22-47.42c-16.15-29.54-28.75-60.72-42.08-91.55
		c-17.84-41.24-36.68-81.95-60.04-120.44c-25.28-41.67-54.81-80.08-87.98-115.76c-28.97-31.17-60.51-59.47-94.64-84.8
		c-40.41-30.01-82.95-56.61-129.17-76.91c-15.71-6.89-32.07-12-48.5-16.89c-7.49-2.23-8.14-4.97-2.68-10.61
		c7.06-7.3,16.43-9.25,25.72-10.95c31.8-5.82,63.87-9.53,96.24-9.28c33.6,0.26,66.64,5.16,99.02,14.2
		c55.32,15.45,106.56,39.65,153.44,72.79c54.64,38.61,100.86,85.45,137.09,141.94c23.81,37.13,41.4,77,52.67,119.56
		C1658.16,841.96,1664.5,883,1664.25,927.91z"/>
	<path class="st3" d="M626.48,538.68c11.68-0.86,23.04,3.02,33.08,11.06c2.99,2.39,6.1,4.62,9.2,6.87
		c3.52,2.56,7.38,3.23,11.25,1.08c3.66-2.04,5.49-5.53,4.98-9.65c-1.09-8.83-1.52-17.64,1.08-26.23
		c8.8-29.07,27.3-49.32,55.67-60.39c1.69-0.66,3.53-1.02,5.33-1.24c16.18-1.98,23.95,5.22,25.89,23.84
		c0.29,2.81,0.51,5.66,1.21,8.38c1.73,6.7,8.57,9.4,14.61,6c3.46-1.95,5.53-5.25,8.02-8.12c10.9-12.59,24.23-21.25,40.56-24.84
		c25.67-5.65,46.7,9.53,49.47,35.67c2.8,26.41-6.22,49.06-22.61,69.2c-6.16,7.57-13.62,11.49-24.06,9.35
		c-8.65-1.78-14.93,4.63-15.19,14.23c-0.31,11.56,2,22.86,4.02,34.15c6.04,33.77,15.48,66.62,27.07,98.88
		c2.71,7.53,6.55,14.56,10.6,21.42c1.84,3.11,1.16,4.71-1.08,7.16c-21.7,23.71-49.23,36.84-79.87,44.4
		c-7.26,1.79-14.65,3.14-21.76,5.39c-16.13,5.11-31.06,1.74-45.94-4.94c-7.21-3.23-11.84-7.97-15.37-15.1
		c-22.45-45.33-47.63-89.16-73.45-132.64c-2.72-4.58-5.51-9.14-9.15-13.06c-8.1-8.71-17.17-6.78-20.85,4.42
		c-3.85,11.74-11.48,20.03-22.7,25.09c-11.08,4.99-21.4,3.54-30.95-3.75c-14.39-11-19.55-25.98-15.2-42.97
		c9.46-36.92,30.92-64.37,67.04-78.86C606.26,539.92,615.68,538.47,626.48,538.68z M750.39,772.33c0.13-2.06-1.32-4.37-2.51-6.72
		c-23.1-45.3-46.23-90.59-69.37-135.87c-0.83-1.62-1.66-3.29-2.76-4.73c-3.02-3.94-7.74-4.96-12.05-2.79
		c-3.96,1.99-6.05,6.4-4.87,10.95c0.53,2.06,1.54,4.01,2.52,5.92c19.16,37.63,38.35,75.24,57.55,112.85
		c4.38,8.59,8.68,17.22,13.28,25.69c2.45,4.5,7.14,6.34,11.41,4.86C747.97,780.98,750.33,777.83,750.39,772.33z"/>
	<path class="st3" d="M852.3,959.22c-7.5,22.05-10.41,43.89-11.04,66.95c-8.57-3.35-16.73-6.34-24.71-9.72
		c-9.79-4.15-19.35-8.86-29.18-12.88c-8.44-3.46-15.72,1.75-14.54,9.96c0.59,4.09,3.35,6.38,6.82,7.97
		c18.59,8.5,37.28,16.72,56.55,23.65c19.9,7.16,40.63,11.31,60.77,17.55c1.74,0.54,3.47,1.14,5.19,1.77
		c13.05,4.85,15.29,8.35,13.57,22c-1.12,8.89-1.64,17.92-5.36,26.3c-4.09,9.21-8.98,12.42-18.89,12.39
		c-8.36-0.02-16.58-1.53-24.87-2.2c-20.64-1.66-41.29-1-61.94-0.19c-15.86,0.63-31.63,0.16-47.19-3.43
		c-19.88-4.59-36.16-15.68-51.4-28.56c-18.24-15.41-34.98-32.31-49.96-50.92c-1.77-2.2-3.59-4.39-5.56-6.42
		c-3.86-3.98-8.82-4.4-12.51-1.21c-3.5,3.02-3.97,7.88-0.91,12.15c20.53,28.62,44.33,54,73.19,74.48
		c22.95,16.29,48.63,23.48,76.48,23.52c20.66,0.03,41.32-0.41,61.97-0.42c6.65,0,13.3,0.73,19.95,1.01c2.17,0.09,3.21,0.7,3.4,3.14
		c0.57,7.31,1.09,14.6,1.09,21.95c0,3.3-0.96,4.14-4.22,4.05c-39.48-1.01-78.96-1.89-118.44-2.79c-8-0.18-15.99-0.38-23.99-0.48
		c-7.96-0.11-12.65,3.33-12.89,9.33c-0.25,6.27,4.25,10.29,12.5,10.48c24.49,0.58,48.98,0.9,73.47,1.45
		c22.65,0.51,45.3,1.26,67.96,1.73c3.09,0.06,3.46,0.98,3,3.77c-2.07,12.51-5.5,24.63-9.78,36.54c-1.04,2.9-2.2,3.73-5.68,2.89
		c-33.92-8.21-67.92-16.12-101.89-24.1c-30.58-7.19-61.16-14.38-91.75-21.57c-23.62-5.55-47.23-11.14-70.89-16.54
		c-3.39-0.77-4.76-1.98-4.91-5.72c-0.96-23.26,3.18-45.77,10.04-67.81c16.02-51.42,40.36-99.03,67.18-145.49
		c1.64-2.84,3.15-3.36,6.24-2.56c4.74,1.22,9.54,3.21,14.62,1.2c1.05-0.41,1.83,0.55,2.6,1.17c17.37,14,38.02,19.26,59.49,22.28
		c18.76,2.64,37.6,3.5,56.13-0.93c15.16-3.63,30.05-8.46,44.66-13.99C848.21,960.4,849.81,959.99,852.3,959.22z"/>
	<path class="st2" d="M835.81,1386c-13.99,0-27.97,0.02-41.96-0.02c-2.51-0.01-4.98,0.05-7.36,0.99c-4.02,1.6-6.09,4.75-6.16,8.86
		c-0.07,4.16,2.12,7.28,6.03,8.96c2.17,0.93,4.49,1.11,6.85,1.15c19.98,0.33,39.96,0.67,59.94,1.08c6.99,0.14,13.98,0.46,20.96,0.78
		c1.24,0.06,2.92-0.68,3.62,0.77c0.64,1.33-0.66,2.45-1.37,3.52c-7.26,10.95-16.41,20.1-26.86,27.96
		c-24.76,18.63-50.32,36.08-76.84,52.13c-4.67,2.83-7.85,2.65-12.15-1.1c-14.18-12.41-29.83-22.89-45.83-32.82
		c-3.49-2.16-4.51-3.35-0.67-6.5c7.85-6.43,15.47-13.22,21.58-21.42c16-21.49,14.99-47.56-2.35-69.63
		c-13.19-16.79-29.91-29.82-46-43.49c-21.06-17.9-42.53-35.32-61.34-55.69c-17.06-18.48-30.68-38.9-36.26-63.94
		c-0.89-4-0.45-5.09,3.87-4.06c37.35,8.91,74.73,17.69,112.1,26.48c30.75,7.23,61.5,14.46,92.28,21.56
		c2.96,0.68,4.84,1.25,4.32,4.98c-0.51,3.71,1.88,6.57,3.97,9.41c18.17,24.69,38.17,47.91,57.25,71.87
		c12.63,15.86,20.61,33.68,20.99,54.42c0.08,4.3-0.7,6.09-5.65,5.95c-14.31-0.39-28.63-0.14-42.95-0.14
		C835.81,1387.37,835.81,1386.69,835.81,1386z"/>
	<path class="st4" d="M814.12,950.83c-9.03,3.26-17.24,5.91-25.91,6.59c-25.02,1.97-49.53-0.34-73.13-9.43
		c-4.67-1.8-8.97-4.35-13.12-7.16c-1.66-1.12-2.08-2.09-1.07-4.07c3.68-7.23,5.19-15.04,5.63-23.09c0.11-1.96,0.11-3.89,1.86-5.46
		c8.12-7.27,10.81-16.97,11.54-27.32c0.36-5.18,1.91-9.46,5.19-13.62c8.03-10.18,13.69-21.63,15.97-34.52
		c0.62-3.49,1.79-4.76,5.82-5.32c38.62-5.39,76.29-13.84,108.54-37.64c3.87-2.86,7.44-6.15,11.06-9.34
		c3.49-3.08,6.87-6.29,10.25-9.38c3.27,6.59,6.53,13.96,10.46,20.95c16.06,28.55,38.61,50.24,68.45,64.14
		c5.57,2.59,11.13,5.25,16.13,8.92c2.73,2.01,2.87,3.57-0.03,5.6c-2.92,2.05-6.07,3.44-9.46,4.34c-7.71,2.05-15.51,3.81-23.15,6.09
		c-14.59,4.35-28.88,3.58-43.09-1.63c-11.72-4.3-23.24-9.01-34.36-14.7c-5.07-2.6-8.85-2.14-13.26,1.75
		c-4.03,3.56-7.05,7.99-10.01,12.41c-3.93,5.87-8.68,10.93-14,15.53c-7.58,6.55-14.4,13.82-20.29,21.97
		C795.77,928.02,793.11,942.79,814.12,950.83z"/>
	<path class="st2" d="M519.27,1352.29c23.44,12.34,41.51,1.52,56.54-17.19c13.38-16.66,23.26-35.67,34.45-53.79
		c2.4-3.89,3.54-3.95,6.65-0.74c19.35,20.05,40.9,37.65,62.25,55.46c7.11,5.93,7.25,6,1.88,13.33
		c-14.07,19.19-26.63,39.5-42.12,57.65c-7.7,9.02-16.29,17.12-25.82,24.22c-17.71,13.19-37.03,12.06-56.71,6.23
		c-17.27-5.12-33.46-13.03-49.92-20.2c-4.12-1.79-8.22-3.62-12.35-5.38c-1.94-0.82-2.42-1.72-1.17-3.75
		C503.7,1390.64,511.67,1371.81,519.27,1352.29z"/>
	<path class="st2" d="M978.95,1604.27c-32.2,0.09-51.35-31.97-37.46-60.66c3.77-7.78,8.99-14.35,16.12-19.32
		c2.08-1.45,3.87-2.72,4.95,1.19c1.41,5.05,5.02,7.48,10.34,7.77c14.11,0.76,28.2,1.78,42.31,2.5c2.69,0.14,4.04,1,5.19,3.5
		c10.56,23.01-2.31,53.39-26.15,61.79C988.86,1602.94,983.51,1604.53,978.95,1604.27z"/>
	<path class="st2" d="M1359.42,1630c-25.86-0.34-45.8-18.41-49.5-40.91c-1.79-10.87,0.15-20.8,4.94-30.89
		c2.64-5.55,5.25-6.49,10.54-6.08c14.59,1.12,29.21,1.79,43.82,2.62c1.65,0.09,3.25,0.07,4.62,1.38
		c15.81,15.02,20.91,40.67,9.71,58.4C1377.03,1624.86,1367.38,1629.96,1359.42,1630z"/>
	<path class="st4" d="M935.7,1083.58c0-0.67-0.01-1.33,0-2c0.18-9.33,0.15-9.56,9.34-10.96c18-2.73,32.43,3.83,43.04,18.24
		c7.95,10.8,5.43,24.49-5.34,32.72c-9.56,7.3-20.7,10.49-32.48,11.34c-7.77,0.56-15.65,0.72-23.14-2.3
		c-1.78-0.72-3.52-1.28-1.89-3.83c3.36-5.23,5.41-11.04,6.78-17.06C933.96,1101.13,935.22,1092.41,935.7,1083.58z"/>
	<path class="st5" d="M1006.01,1399.61c-1.05,32.75-2.08,65.49-3.16,98.24c-0.15,4.48-0.66,8.95-0.69,13.43
		c-0.02,2.7-0.71,4.01-3.66,3.76c-4.96-0.42-9.94-0.68-14.92-0.89c-2.32-0.1-2.63-1.44-2.59-3.32c0.52-23.61,1.01-47.23,1.51-70.85
		c0.17-7.98,0.35-15.97,0.55-23.95c0.27-10.81,0.57-21.62,0.85-32.42c0.05-1.86-0.16-4.04,2.72-3.49c5.44,1.03,10.95,0.57,16.42,1
		c2.5,0.2,3.75,0.91,3.44,4.03c-0.48,4.78-0.12,9.64-0.12,14.46C1006.23,1399.61,1006.12,1399.61,1006.01,1399.61z"/>
	<path class="st4" d="M936.68,1052.3c6.1-8.23,7.62-17.08,10.51-25.48c1.7-4.92,7.36-7.9,12.38-9.78
		c13.42-5.03,25.58-0.99,35.45,8.03c9.62,8.79,12.47,20.49,8.47,33.31c-1.14,3.65-2.08,8.53-5.02,9.98
		c-3.33,1.63-5.52-3.49-8.38-5.41C974.09,1052.19,956.98,1047.07,936.68,1052.3z"/>
	<path class="st3" d="M859.02,1028.87c0.81-8.34,1.52-15.14,2.12-21.94c0.24-2.74,1.28-3.28,3.88-2.34
		c20.04,7.24,40.67,12.42,61.36,17.34c2.49,0.59,2.79,1.61,2.38,3.78c-1.58,8.56-6.53,15.15-12.19,21.36
		c-0.94,1.03-1.91,1.28-3.1,0.76c-16.12-6.97-33.47-9.74-50.21-14.59C859.64,1032.19,858.73,1030.56,859.02,1028.87z"/>
	<path class="st5" d="M1026.78,1511.22c24.48,1.47,50.04,3,75.6,4.53c17.43,1.04,34.85,2.16,52.29,3.09
		c28.06,1.51,56.13,2.82,84.17,4.86c19.74,1.43,39.53,2.15,59.29,3.23c19.93,1.09,39.85,2.25,59.77,3.39
		c0.99,0.06,1.98,0.27,2.97,0.4c1.46,0.18,3.29,0.03,2.95,2.32c-0.33,2.26-2.06,1.54-3.52,1.45c-20.76-1.18-41.51-2.35-62.27-3.49
		c-35.87-1.96-71.74-3.92-107.61-5.84c-14.62-0.78-29.24-1.44-43.86-2.23c-29.06-1.57-58.12-3.25-87.18-4.78
		c-11.46-0.6-22.94-0.76-34.34-2.14c-1.39-0.17-3.59,0.79-3.42-2.21C1021.8,1510.92,1023.5,1510.7,1026.78,1511.22z"/>
	<path class="st2" d="M824.81,1247.94c8.37,1.92,15.62,3.65,22.91,5.24c2.95,0.64,3.14,1.88,1.92,4.46
		c-6.64,14.08-6.58,14.1-15.94,1.9C830.98,1255.98,828.26,1252.43,824.81,1247.94z"/>
	<path class="st2" d="M1336.09,1217.68c0.64-4.39-0.86-6.02-5.65-5.96c-21.22,0.28-42.45,0.19-63.67,0.13
		c-3.16-0.01-6.16,0.19-8.88,1.96c-0.27-2.29,0.97-2.78,2.98-2.77c24.43,0.01,48.87-0.18,73.3,0.08
		C1339.45,1211.17,1336.27,1215.22,1336.09,1217.68z"/>
	<path class="st0" d="M750.39,772.33c-0.06,5.5-2.42,8.65-6.8,10.17c-4.27,1.48-8.97-0.36-11.41-4.86
		c-4.6-8.47-8.9-17.1-13.28-25.69c-19.2-37.61-38.38-75.22-57.55-112.85c-0.97-1.91-1.99-3.87-2.52-5.92
		c-1.17-4.55,0.91-8.95,4.87-10.95c4.31-2.17,9.02-1.14,12.05,2.79c1.1,1.44,1.93,3.1,2.76,4.73
		c23.14,45.28,46.26,90.57,69.37,135.87C749.07,767.97,750.52,770.27,750.39,772.33z"/>
</g>
</svg>
